<svg xmlns="http://www.w3.org/2000/svg" width="64" height="64"><path d="M39.352 0a8.6 8.6 0 0 1 2.66.754q.386.168.777.344l.414.187q.895.404 1.79.8.486.217.968.435c1.96.875 3.93 1.73 5.898 2.585.371.165.743.325 1.118.489a878 878 0 0 0 5.546 2.394q.263.11.532.227 1.248.533 2.496 1.062l.879.375.773.332c.57.254.57.254.797.47.184 3.667-.152 7.347-.41 11.007q-.089 1.249-.172 2.492a1898 1898 0 0 1-.324 4.7c-.125 1.785-.246 3.574-.371 5.359q-.376 5.503-.758 11c-.68-.211-.68-.211-1.028-.825l-.343-.761c-.43-.992-.43-.992-1.117-1.824-.153-.426-.305-.856-.454-1.282-.105-.199-.214-.394-.324-.601-.375-.719-.62-1.434-.863-2.203-.133-.438-.133-.438-.621-.61q-.23-.638-.453-1.281-.347-.662-.723-1.312c-.18-.391-.18-.391-.18-1.032h-.453v-.855q-.22-.105-.453-.211c-2.262-4.043-2.262-4.043-2.262-5.336-.222-.106-.222-.106-.449-.211a22 22 0 0 1-.695-1.336c-.117-.242-.238-.484-.36-.734a7.2 7.2 0 0 1-.53-1.77q-.332-.104-.677-.215a29 29 0 0 1-.453-1.492q-.333-.643-.68-1.281a87 87 0 0 1-.55-1.254 40 40 0 0 0-1.867-3.691 5.5 5.5 0 0 1-.524-1.668h-.449c-.074-.493-.152-.985-.227-1.493h-.453v-.855h-.453q-.095-.362-.195-.73c-.086-.254-.168-.504-.258-.762q-.221-.104-.45-.215c-.163-.371-.163-.371-.312-.848-.351-1.054-.793-2.05-1.273-3.058-.074-.168-.152-.332-.234-.508-.313-.66-.598-1.254-1.067-1.832-.281-.367-.281-.367-.281-1.219l-.453-.215A25 25 0 0 1 39.35 0m0 0" style="stroke:none;fill-rule:nonzero;fill:#9614ec;fill-opacity:1"/><path d="m24.648.215-.222.445a3611 3611 0 0 0-5.09 10.328q-1.904 3.873-3.816 7.746a3236 3236 0 0 0-5.54 11.239q-.37.746-.734 1.492L7.391 35.23c-.125.25-.246.504-.375.762l-.739 1.496a248 248 0 0 0-1.789 3.7q-.168.356-.343.718-.322.68-.637 1.36l-.285.605c-.125.262-.125.262-.25.531-.258.399-.258.399-.938.61-.265-.785-.226-1.528-.226-2.344l-.227-.64a37 37 0 0 1 0-1.31 20 20 0 0 0-.176-2.964c-.074-.637-.05-1.274-.05-1.914q-.048-.436-.106-.871c-.133-1.074-.18-2.14-.219-3.223-.078-1.93-.199-3.86-.34-5.785C-.089 15.1-.089 15.1 0 10.453 2.8 9.086 5.668 7.855 8.531 6.61q1.302-.567 2.61-1.14C18.62 2.207 18.62 2.207 21.6.953c.887-.375.887-.375 1.747-.8.515-.196.78-.083 1.3.062m0 0" style="stroke:none;fill-rule:nonzero;fill:#fb2ec6;fill-opacity:1"/><path d="M19.824 46.875c.223-.004.446-.004.676-.008h.738c.258 0 .516-.004.782-.004a559 559 0 0 1 2.558-.008c.59-.003 1.184-.003 1.774-.007q1.859-.005 3.718-.004 2.155-.005 4.305-.016c1.379-.012 2.758-.012 4.137-.012q.878-.001 1.761-.007c.817-.008 1.637-.004 2.457-.004.247-.004.489-.004.743-.008.605.004 1.164.016 1.757.137.473.496.473.496.676 1.066.117.238.23.473.348.719l.363.808q.099.217.196.438c.132.3.269.605.402.906l.62 1.387c.134.293.263.59.395.883q.09.208.188.418c.266.605.43 1.035.43 1.695h-.453l-.227.426c-.484.265-.79.425-1.355.425l-.227.43c-.453.14-.902.281-1.356.426l-.226.426c-.453.14-.906.285-1.356.425l-.226.426c-.602.375-1.125.64-1.813.856l-.449.426a38 38 0 0 1-1.21.57c-1.727.8-3.356 1.73-4.997 2.68-2.555 1.44-2.555 1.44-4.254 1.07-.594-.254-.867-.461-1.3-.906q-.451-.217-.903-.426c-.297-.176-.586-.356-.879-.535-.742-.446-1.445-.715-2.289-.961-.453-.426-.453-.426-.68-.852-.296-.078-.601-.144-.902-.215-.535-.199-1.058-.418-1.582-.636v-.43c-.137-.031-.273-.059-.41-.094-.399-.094-.785-.21-1.176-.332v-.426h-.902v-.425c-.137-.032-.27-.063-.41-.094q-.593-.148-1.172-.336v-.426l-.54-.094c-.593-.117-.593-.117-1.046-.332v-.425c-.14-.032-.278-.063-.422-.094-.48-.121-.48-.121-.934-.336.227-1.582.227-1.582.453-2.344h.45c.027-.184.054-.363.078-.55.156-.77.406-1.434.715-2.157.414-.988.414-.988.793-1.988h.453l.082-.504c.246-.98.672-1.043 1.648-1.047m0 0" style="stroke:none;fill-rule:nonzero;fill:#eb0b60;fill-opacity:1"/><path d="M31.887 16.852c.586.277.613.484.855 1.05.078.18.153.36.235.543.082.2.168.395.253.598.09.207.176.414.27.629q.438 1.02.875 2.047l.605 1.414.938 2.183q1.065 2.49 2.148 4.973l.29.656q.546 1.259 1.093 2.512.38.86.754 1.723l.227.515c.504 1.164.504 1.164.504 1.637q-3.245.051-6.489.098-1.506.018-3.011.043-1.454.022-2.907.039c-.37.008-.742.011-1.109.02q-.781.009-1.555.019c-.441.008-.441.008-.894.011-.77-.015-.77-.015-1.903-.23.149-.703.301-1.406.454-2.133h.453q.047-.175.101-.351c.395-1.328.903-2.59 1.465-3.856.254-.582.469-1.125.594-1.742q.047-.221.101-.45l.45-.214c.21-.39.21-.39.398-.879q.117-.285.234-.582l.274-.672c.226-.535.453-1.066.68-1.601q.47-1.107.94-2.227c.33-.777.661-1.55 1.024-2.316a7 7 0 0 0 .524-1.75h.449l.086-.614c.14-.664.14-.664.594-1.093m0 0" style="stroke:none;fill-rule:nonzero;fill:#de1da4;fill-opacity:1"/><path d="M31.887 16.852c.586.277.613.484.855 1.05.078.18.153.36.235.543.082.2.168.395.253.598.09.207.176.414.27.629q.438 1.02.875 2.047l.605 1.414.938 2.183q1.065 2.49 2.148 4.973l.29.656q.546 1.259 1.093 2.512.38.86.754 1.723l.227.515c.504 1.164.504 1.164.504 1.637H35.73v-.21l1.81-.216c.151-.422.3-.843.452-1.281h-.453c-.363-.496-.64-.926-.789-1.52-.145-.503-.395-.68-.793-1.039-.512-.707-.777-1.285-.902-2.132h-.453c-.461-.622-.68-.938-.68-1.707h-.68l-.449.851c-.426-.398-.723-.777-1.047-1.25q-.152-.214-.305-.441c-.234-.442-.234-.442-.234-1.293-.465-1.32-1.09-2.145-2.262-2.989q-.111-.209-.222-.425c.199-.551.199-.551.507-1.215q.159-.34.317-.695.262-.558.523-1.114c.328-.695.567-1.343.688-2.097h.449q.046-.299.086-.614c.14-.664.14-.664.594-1.093m0 0" style="stroke:none;fill-rule:nonzero;fill:#db25bd;fill-opacity:1"/><path d="M26.234 29.227c.676.214.676.214 1.13.851q.223.11.452.215c.41.695.747 1.352.907 2.133h.902v.426h.453c.34.296.34.296.68.64.664.63 1.402 1.156 2.16 1.68.633.52 1.035 1.055 1.457 1.734v.426c-1.43.04-2.86.07-4.285.105l-1.457.036q-1.05.022-2.098.047c-.219.007-.433.011-.656.02l-.617.01c-.27.009-.27.009-.543.013-.52-.016-.52-.016-1.653-.231.149-.703.301-1.406.454-2.133h.453q.047-.175.101-.351c.442-1.477 1.024-2.88 1.637-4.293q.282-.656.523-1.328m0 0" style="stroke:none;fill-rule:nonzero;fill:#f01f92;fill-opacity:1"/><path d="m28.945 23.895.68.21v.43q.204.136.414.277c.574.422.805.801 1.129 1.415.098.183.195.363.3.55.216.594.157.801-.034 1.383l.226.64q.224.106.453.212c.149.21.297.425.453.64-.043.157-.086.309-.129.47-.124.765.102 1.206.422 1.905.16.399.16.399.16 1.04l-.68.214c-.413-.246-.413-.246-.835-.601-.14-.117-.281-.23-.426-.352-.32-.328-.32-.328-.32-.754h-.453v-.426c-.575.114-.575.114-1.133.426-.203.649-.203.649-.227 1.278-.425-.473-.66-.782-.789-1.399-.133-.613-.304-.75-.793-1.16-.855-.973-.855-.973-1.129-1.492q.222-.104.45-.215c.226-.418.226-.418.425-.934l.239-.578c.324-.832.632-1.668.937-2.508.211-.46.211-.46.66-.671m0 0" style="stroke:none;fill-rule:nonzero;fill:#e923a8;fill-opacity:1"/><path d="M18.77 46.934q5.157-.036 10.316-.055 2.392-.011 4.789-.027c1.54-.012 3.078-.016 4.617-.02.59 0 1.176-.004 1.766-.012.82-.008 1.644-.008 2.465-.008.367-.007.367-.007.742-.011.61.004 1.168.015 1.765.133.473.496.473.496.676 1.066.117.238.23.473.348.719l.363.808c.098.215.098.215.196.438.132.3.269.605.402.906l.62 1.387c.134.293.263.59.395.883q.09.208.188.418c.266.605.43 1.035.43 1.695h-.453l-.227.426c-.484.265-.79.425-1.355.425-.114.211-.114.211-.227.43-.465.133-.465.133-.902.211.847-.824.847-.824 1.355-1.066-.586-1.856-1.488-3.547-2.398-5.278q-.304-.573-.602-1.148c-.117-.227-.238-.45-.36-.684-.257-.57-.257-.57-.257-1.21a961.775 961.775 0 0 1-16.355-.098q-1.412-.023-2.825-.04-2.736-.036-5.472-.074zm0 0" style="stroke:none;fill-rule:nonzero;fill:#c90fa0;fill-opacity:1"/><path d="M35.055 29.652h1.582v1.496q.22.106.453.211V32q.221.104.45.215.085.21.17.426c.142.21.142.21.282.425q.318.013.64.02c.72.195.72.195.977.543.235.476.43.957.618 1.45.07.171.136.339.21.51.497 1.227.497 1.227.497 1.743H35.73v-.21l1.81-.216c.151-.422.3-.843.452-1.281h-.453c-.363-.496-.64-.926-.789-1.52-.145-.503-.395-.68-.793-1.039-.395-.57-.676-1.058-.902-1.707l.449-.425zm0 0" style="stroke:none;fill-rule:nonzero;fill:#cf1db4;fill-opacity:1"/><path d="M30.305 33.492c.78.328 1.379.77 2.035 1.281q.286.2.578.399c.633.52 1.035 1.055 1.457 1.734v.426c-.848 0-1.66-.039-2.488-.21-.664-.642-.88-1.009-.961-1.895q.03-.224.054-.454h-.449c-.074-.421-.152-.843-.226-1.28m0 0" style="stroke:none;fill-rule:nonzero;fill:#e61b97;fill-opacity:1"/><path d="M27.816 47.148h6.559v.211h-1.809V48q-.175-.104-.355-.215c-.727-.281-1.356-.238-2.133-.21l.227.425c-.64.902-1.16.848-2.262 1.066.223-.421.445-.843.68-1.28-.301-.212-.598-.423-.907-.638m0 0" style="stroke:none;fill-rule:nonzero;fill:#f31264;fill-opacity:1"/><path d="M39.352 0c1.234.117 2.164.543 3.25 1.078q.246.123.503.246.61.294 1.22.598c-.223.105-.223.105-.454.21a31 31 0 0 1-1.836-.734c-.172-.07-.34-.144-.515-.218-.422-.176-.844-.36-1.266-.54q.104.218.207.446l.262.582.261.578c.176.527.176.527-.05 1.168-.594-.652-.68-.797-.68-1.707l-.453-.215A25 25 0 0 1 39.35 0m0 0" style="stroke:none;fill-rule:nonzero;fill:#ca22d2;fill-opacity:1"/><path d="M33.922 29.227v.64l.453.211q.11.32.227.64l-.227.43h-.453v-.43l-.535-.093c-.594-.117-.594-.117-1.047-.332.394-.75.672-1.066 1.582-1.066m0 0" style="stroke:none;fill-rule:nonzero;fill:#de22b0;fill-opacity:1"/><path d="M24.21 57.879c.438.148.438.148.665.574-.621.348-.621.348-1.355.64-.54-.171-.54-.171-.907-.425.903-.887.903-.887 1.598-.79m.438-.066.454.214Zm0 0" style="stroke:none;fill-rule:nonzero;fill:#ef0643;fill-opacity:1"/><path d="M2.715 43.309c.223.07.445.14.676.21-.297.493-.594.985-.903 1.493h-.453c-.14-.387-.14-.387-.226-.852.453-.64.453-.64.906-.851m0 0" style="stroke:none;fill-rule:nonzero;fill:#eb1e93;fill-opacity:1"/><path d="M1.809 39.68h.226c.133 1.14.258 2.261.227 3.414-.664-.696-.762-1.14-.735-2.067.004-.207.008-.414.008-.629.047-.503.047-.503.274-.718m0 0" style="stroke:none;fill-rule:nonzero;fill:#e81f9d;fill-opacity:1"/><path d="M39.8.852h.454c.16.308.312.613.469.921.129.258.129.258.261.516.176.484.176.484-.05 1.125-.594-.652-.68-.797-.68-1.707l-.453-.215zm0 0" style="stroke:none;fill-rule:nonzero;fill:#d120c3;fill-opacity:1"/><path d="M19.309 47.125c.316.004.628.004.945.008.16 0 .32.004.488.004l1.195.011v.211l-.62.024c-.266.015-.532.031-.81.043-.265.011-.527.027-.8.039-.734.113-.957.2-1.39.75 0-1.063 0-1.063.992-1.09m0 0" style="stroke:none;fill-rule:nonzero;fill:#ee146f;fill-opacity:1"/><path d="M3.39 31.574c.301.14.598.281.907.426-.645.496-1.254.8-2.035 1.066.09-.617.18-.816.691-1.226q.217-.13.438-.266m0 0" style="stroke:none;fill-rule:nonzero;fill:#f92cb0;fill-opacity:1"/><path d="M18.996 55.04c.45.105.45.105.906.214-.226.21-.449.422-.68.64-.148-.14-.296-.28-.452-.43zm-.902.425q.331.107.676.215c-.227.425-.227.425-.676.64-.153-.14-.301-.28-.453-.425zm0 0" style="stroke:none;fill-rule:nonzero;fill:#ed0d51;fill-opacity:1"/><path d="m30.531 51.84.45.426h-.45zm-.453.215c.453.425.453.425.453 1.066l-.68.211c-.14-.398-.14-.398-.226-.852q.223-.209.453-.425m0 0" style="stroke:none;fill-rule:nonzero;fill:#f30954;fill-opacity:1"/><path d="M30.531 20.906c.621.293.793.719 1.13 1.282-.68 0-.68 0-1.048-.293-.308-.348-.308-.348-.535-.774zm0 0" style="stroke:none;fill-rule:nonzero;fill:#e329c2;fill-opacity:1"/></svg>