<svg xmlns="http://www.w3.org/2000/svg" width="64" height="64"><path d="M13.375-.008h3.844c1.101-.004 2.207-.004 3.308-.004h15.719q1.36-.005 2.715-.004h11.723c1.34-.007 2.66.504 3.714 1.555l.067.059q.251.252.484.535l.047.054c.211.254.399.512.574.805q.044.07.086.14c.668 1.075 1.082 2.4 1.242 3.74l.016.097c.05.457.043.918.04 1.379v.37c0 .345-.005.688-.005 1.028q.001.584-.004 1.164v.074q-.002 1.395.055 2.79l.004.074c.012.277.023.554.043.832l.004.11c.164 2.831.504 5.675 2.597 11.815l.043.075c.18.32.368.613.582.898l.094.129c.176.258.371.477.582.684l.074.078a5.1 5.1 0 0 0 2.172 1.293l.063.02c.246.066.492.1.742.148v4.14l-.648.125a5.2 5.2 0 0 0-1.528.692l-.05.031c-.485.32-.903.754-1.297 1.223l-.059.066a5 5 0 0 0-.313.441l-.105.164c-1.48 2.192-2.117 5.262-2.992 13.286-.004.05-.004.05-.004.101q-.06 1.335-.055 2.672v.45q.005.637.004 1.277c.004.238.004.472.004.71v.372c.004.703-.016 1.394-.148 2.078l-.02.101a9.2 9.2 0 0 1-1.687 3.82l-.043.055c-.192.25-.391.48-.614.688a2 2 0 0 0-.133.125 5.7 5.7 0 0 1-.812.637l-.059.039a4.9 4.9 0 0 1-1.765.715l-.078.015c-.325.059-.645.055-.973.055h-9.809q-2.31.005-4.613.004H34.73c-1.832-.004-3.667 0-5.5 0H13.328c-.496.004-.988-.04-1.469-.192l-.078-.023c-1.078-.348-2.011-1.063-2.804-2.024l-.075-.086a6 6 0 0 1-.402-.574l-.059-.093c-.879-1.395-1.402-3.168-1.394-4.95v-.133q-.001-.146.004-.292v-1.72c.004-1.265.008-2.527-.051-3.792l-.004-.09c-.101-2.258-.312-4.512-.723-6.719l-.011-.062a25 25 0 0 0-1.035-3.922l-.036-.09c-.488-1.363-1.199-2.703-2.14-3.64l-.074-.079a5.1 5.1 0 0 0-2.172-1.293l-.063-.02c-.246-.066-.492-.1-.742-.148v-4.14l.648-.125a5.2 5.2 0 0 0 1.528-.692l.05-.031c.258-.172.493-.371.723-.598l.067-.062a8 8 0 0 0 .507-.563q.03-.036.059-.066c.113-.14.211-.285.309-.441.039-.055.078-.114.113-.168.344-.493.613-1.067.863-1.637q.04-.094.086-.188c1.106-2.5 1.55-5.507 2.04-11.351l.003-.098c.04-.851.059-1.7.055-2.555v-.468q-.005-.669-.004-1.332-.005-.374-.004-.742v-.391c-.004-.723.012-1.438.148-2.145l.02-.097c.297-1.504.887-2.813 1.738-3.922l.04-.047c.16-.211.327-.402.511-.578l.043-.043c.25-.238.508-.45.781-.649l.055-.039a5 5 0 0 1 1.945-.84c.028-.003.051-.011.078-.015.325-.059.645-.055.973-.055" style="stroke:none;fill-rule:nonzero;fill:#7c11f7;fill-opacity:1"/><path d="M22.176 14.902c12.238 0 12.238 0 13 .149l.062.011c1.39.27 2.813.876 3.91 2.004l.07.07a8 8 0 0 1 .532.59l.059.067c.132.164.25.344.367.527l.05.078c.598.91.989 2.028 1.188 3.176l.023.145c.348 1.898.063 4.004-.753 5.656a8.7 8.7 0 0 1-.883 1.426l-.04.05a5.3 5.3 0 0 1-.534.606l-.051.05c-.672.661-1.692 1.427-2.574 1.427v.062l.074-.004c.097.004.183.02.277.04l.05.011.161.035.059.012c.304.074.605.164.902.281q.064.029.129.05c.922.368 1.8.946 2.516 1.77q.074.087.156.172c.187.207.363.438.52.684q.05.084.109.168c.414.605.718 1.34.945 2.082l.02.066c.203.653.308 1.344.378 2.035q.007.034.008.075c.028.277.024.562.024.843v.086c0 .43-.012.86-.055 1.29l-.008.093a11.2 11.2 0 0 1-.691 2.95l-.028.066a8 8 0 0 1-1.125 1.972l-.046.063a6.6 6.6 0 0 1-.625.723l-.09.086c-1.223 1.187-2.696 1.835-4.203 2.183l-.207.047c-4.336 1.008-10.743.223-13.676.223Zm0 0" style="stroke:none;fill-rule:nonzero;fill:#f7f0fd;fill-opacity:1"/><path d="m26.625 33.57 3.05-.004.958-.004h.953c1.734-.003 1.734-.003 2.484.141l.055.008c1.066.203 2.145.586 2.977 1.488l.058.067c.715.78 1.137 1.894 1.215 3.07.004.11.004.215.004.324v.09c0 .063.004.129.004.191v.286a6.3 6.3 0 0 1-.149 1.507l-.02.082c-.167.688-.425 1.293-.816 1.82l-.035.051c-.804 1.086-1.968 1.555-3.101 1.79l-.09.02c-.531.105-1.063.124-1.602.12h-2.672l-3.273-.004Zm0 0" style="stroke:none;fill-rule:nonzero;fill:#7711f1;fill-opacity:1"/><path d="m26.602 19.355 3.007-.003h2.371c.06 0 .114 0 .172-.004.5 0 1 .023 1.496.129l.079.015c1.066.235 2.125.809 2.773 1.942.332.593.527 1.28.594 1.996l.008.105c.105 1.219-.07 2.559-.676 3.555-.09.137-.18.265-.278.39l-.062.086c-.426.559-.965.922-1.535 1.204l-.063.03c-.5.243-1.02.372-1.547.466l-.054.007c-.414.075-.82.098-1.239.094H29.38l-2.777-.004Zm0 0" style="stroke:none;fill-rule:nonzero;fill:#7c12f2;fill-opacity:1"/></svg>