<?xml version="1.0" encoding="UTF-8"?>
<svg xmlns="http://www.w3.org/2000/svg" xmlns:xlink="http://www.w3.org/1999/xlink" width="64px" height="64px" viewBox="0 0 64 64" version="1.1">
<g id="surface1">
<path style=" stroke:none;fill-rule:nonzero;fill:rgb(10.588235%,45.09804%,72.941178%);fill-opacity:1;" d="M 5.359375 57.292969 L 0 0.105469 L 64 0.222656 L 58.332031 57.292969 L 32.242188 63.894531 Z M 5.359375 57.292969 "/>
<path style=" stroke:none;fill-rule:nonzero;fill:rgb(10.980392%,53.333336%,78.039217%);fill-opacity:1;" d="M 32.242188 58.371094 L 32.242188 5.554688 L 58.597656 5.628906 L 53.898438 52.882812 Z M 32.242188 58.371094 "/>
<path style=" stroke:none;fill-rule:nonzero;fill:rgb(100%,100%,100%);fill-opacity:1;" d="M 52.050781 12.304688 L 11.507812 12.304688 L 12.605469 19.207031 L 31.847656 19.207031 L 12.914062 26.304688 L 14.011719 32.980469 L 41.90625 32.980469 L 40.894531 42.296875 L 31.449219 43.910156 L 22.886719 41.992188 L 22.226562 36.699219 L 14.363281 36.699219 L 15.417969 47.707031 L 32.285156 51.8125 L 48.449219 47.320312 L 50.515625 25.804688 L 33.425781 25.804688 L 52.050781 19.054688 Z M 52.050781 12.304688 "/>
</g>
</svg>
