<svg xmlns="http://www.w3.org/2000/svg" width="64" height="64"><path d="M32 0C14.32 0 0 14.32 0 32c0 14.16 9.16 26.121 21.879 30.36 1.601.28 2.2-.68 2.2-1.52 0-.762-.04-3.281-.04-5.961-8.039 1.48-10.117-1.957-10.758-3.758-.36-.922-1.922-3.762-3.281-4.52-1.121-.601-2.719-2.081-.04-2.12 2.52-.04 4.321 2.32 4.919 3.28 2.883 4.84 7.48 3.477 9.32 2.637.281-2.078 1.121-3.476 2.04-4.277-7.118-.8-14.56-3.562-14.56-15.8 0-3.481 1.243-6.36 3.282-8.602-.32-.797-1.441-4.078.32-8.48 0 0 2.68-.84 8.797 3.28a29.8 29.8 0 0 1 8-1.078c2.723 0 5.442.36 8 1.079 6.121-4.16 8.8-3.282 8.8-3.282 1.763 4.403.642 7.684.321 8.48 2.04 2.243 3.281 5.083 3.281 8.602 0 12.282-7.48 15-14.601 15.801 1.16 1 2.16 2.918 2.16 5.918 0 4.281-.039 7.723-.039 8.8 0 .84.602 1.84 2.2 1.52C54.84 58.121 64 46.121 64 32 64 14.32 49.68 0 32 0m0 0" style="stroke:none;fill-rule:evenodd;fill:#1b1f23;fill-opacity:1"/></svg>