<svg xmlns="http://www.w3.org/2000/svg" width="64" height="64"><path d="m32.02 64.012 11.773-39.309h-23.55Zm0 0" style="stroke:none;fill-rule:nonzero;fill:#e24329;fill-opacity:1"/><path d="M32.02 64.012 20.242 24.703H3.738Zm0 0" style="stroke:none;fill-rule:nonzero;fill:#fc6d26;fill-opacity:1"/><path d="M3.738 24.703.16 36.648c-.324 1.09.031 2.282.887 2.957L32.02 64.012Zm0 0" style="stroke:none;fill-rule:nonzero;fill:#fca326;fill-opacity:1"/><path d="M3.738 24.703h16.504L13.148 1.027c-.363-1.218-1.953-1.218-2.316 0Zm0 0" style="stroke:none;fill-rule:nonzero;fill:#e24329;fill-opacity:1"/><path d="m32.02 64.012 11.773-39.309h16.504Zm0 0" style="stroke:none;fill-rule:nonzero;fill:#fc6d26;fill-opacity:1"/><path d="m60.297 24.703 3.582 11.945c.324 1.09-.031 2.282-.887 2.957L32.02 64.012Zm0 0" style="stroke:none;fill-rule:nonzero;fill:#fca326;fill-opacity:1"/><path d="M60.297 24.703H43.793l7.094-23.676c.367-1.218 1.953-1.218 2.32 0Zm0 0" style="stroke:none;fill-rule:nonzero;fill:#e24329;fill-opacity:1"/></svg>