<svg xmlns="http://www.w3.org/2000/svg" width="64" height="64"><path d="M37.625 3.25c.613.262.836.664 1.125 1.25.863 2.176.785 4.367-.133 6.508-1.293 2.851-3.578 5.187-5.992 7.117-3.332 2.688-3.332 2.688-5 6.5-.21 2.953 1.27 5.023 2.906 7.336 1.246 1.77 1.246 1.77 1.594 2.664q-.062.122-.125.25a66 66 0 0 1-2.625-2.5c-.32-.324-.645-.64-.969-.957-1.96-1.895-3.968-4.363-4.062-7.2.027-1.894 1.086-3.226 2.351-4.53q.259-.27.512-.54c.797-.824 1.648-1.52 2.555-2.214.43-.332.847-.676 1.27-1.02q.801-.657 1.616-1.297c2.493-1.992 4.692-4.36 5.227-7.617.031-.39.035-.777.031-1.172v-.312a10 10 0 0 0-.281-2.266m0 0" style="stroke:none;fill-rule:nonzero;fill:#f8981c;fill-opacity:1"/><path d="M18.422 51.836c.11-.004.219-.004.332-.008.793 0 .793 0 1.195.238l.176.184-.414.055c-1.043.152-2.043.351-3.047.687q-.136.045-.277.09c-.59.207-1.11.457-1.637.793-.129.266-.129.266-.125.5 3.176 2.758 10.895 1.91 14.863 1.914h.864c3.562.008 7.128-.113 10.671-.523q.14-.016.286-.032c4.46-.254 4.46-.254 8.289-2.105.191-.262.191-.262.12-.645-.077-.347-.077-.347-.218-.609.477.027.629.129.984.46.266.415.266.415.282.798-.34.89-1.211 1.312-2.016 1.742-.445.195-.898.352-1.36.5l-.39.129c-5.555 1.75-11.574 2.074-17.363 2.043h-.918c-3.047-.012-6.067-.078-9.094-.422l-.645-.07c-1.957-.22-3.921-.442-5.855-.813-.137-.027-.137-.027-.277-.05-.774-.165-1.575-.45-2.098-1.067-.105-.52-.02-.723.266-1.172 1.734-1.82 4.972-2.625 7.406-2.617m0 0" style="stroke:none;fill-rule:nonzero;fill:#5282a1;fill-opacity:1"/><path d="m45 15.125-.254.148c-2.316 1.368-4.531 2.782-6.621 4.477-.133.102-.133.102-.27.21-1.12.903-2.14 2.212-2.355 3.665-.078 1.586.906 2.89 1.777 4.129.95 1.348 1.555 2.41 1.348 4.121-.543 2.129-2.32 3.652-4.125 4.75q-.31.137-.625.25c.07-.09.07-.09.14-.184 1.02-1.336 1.708-2.441 1.485-4.191-.3-.879-.77-1.57-1.402-2.242-1.352-1.547-2.172-3.59-2.082-5.645.214-1.886 1.175-3.21 2.484-4.488q.145-.148.297-.3c2.297-2.208 5.648-3.552 8.633-4.52q.15-.049.3-.102c.477-.144.793-.23 1.27-.078m0 0" style="stroke:none;fill-rule:nonzero;fill:#f8981c;fill-opacity:1"/><path d="M24.5 34.867h.293c.234.004.473.004.707.008-.355.238-.59.324-.996.434l-.379.105q-.194.051-.398.11c-.946.265-1.868.55-2.766.945-.121.054-.121.054-.242.105-.387.176-.707.34-.969.676l-.125.375q.465.124.93.242l.261.07c6.684 1.708 15.043.196 21.75-.82.602-.09 1.204-.168 1.809-.242-.402.434-.871.664-1.39.938q-.134.07-.274.148c-1.129.598-2.262.875-3.516 1.102-.222.039-.222.039-.449.082-1.535.27-3.07.464-4.621.605l-.43.04c-4.39.382-8.937.452-13.32-.04-.117-.012-.23-.027-.352-.04-3.695-.425-3.695-.425-4.648-1.335-.07-.367-.07-.367 0-.75 2.121-1.984 6.305-2.79 9.125-2.758M24.5 47.625c0 .25 0 .25-.25.516q-.122.117-.25.234c.121.313.188.469.492.621 1.973.512 4.035.555 6.063.55h.343a29.4 29.4 0 0 0 5.137-.425c.238-.039.477-.082.715-.121q.176-.032.36-.062c.867-.122 1.37.011 2.109.468q.263.152.531.305.122.076.25.152c.363.2.738.356 1.125.512v.25c-3.234 1.14-3.234 1.14-4.703 1.43-.09.015-.176.035-.266.05-1.742.317-3.476.442-5.242.434h-.297c-2.87-.012-6.613-.125-8.82-2.227-.223-.402-.254-.609-.172-1.062.543-.887 1.82-1.625 2.875-1.625M23.125 41.5l-.312.336c-.223.27-.31.402-.391.75.055.305.055.305.312.5 4.301 1.805 11.04.75 15.442-.05 1.496-.274 1.496-.274 2.011.01q.146.118.297.235a9 9 0 0 0 1.641.969c-.125.25-.125.25-.379.34l-.34.082c-.125.031-.254.058-.383.09-.203.05-.203.05-.414.097-.14.032-.28.067-.43.102-5.605 1.285-14.25 2.684-19.577-.297a1.97 1.97 0 0 1-.727-.914c-.027-.406.02-.625.285-.941.578-.536 1.254-.868 1.965-1.184l.328-.148c.297-.102.297-.102.672.023M53.125 55.25c.145.43.121.508-.047.969-.887 1.617-2.84 2.351-4.516 2.875a40 40 0 0 1-5.937 1.187q-.22.03-.453.059a69 69 0 0 1-1.887.191c-2.387.227-4.762.262-7.156.258q-.616-.001-1.238.004c-2.25.012-4.48-.027-6.723-.219l-.285-.023c-2.145-.188-4.39-.422-6.383-1.301q-.062-.122-.125-.25c1.246.098 2.488.227 3.734.363 1.817.192 3.618.282 5.442.285q.287.005.574.004.915.005 1.828.004h.313c3.004 0 5.988-.008 8.972-.375.278-.031.555-.066.832-.097 7.063-.653 7.063-.653 13.055-3.934M52.008 35.52c.836.796 1.242 1.757 1.289 2.917-.067 1.54-.883 2.895-1.988 3.934C49.5 43.855 46.402 45.75 44 45.75c.168-.398.309-.578.688-.781.085-.051.175-.098.265-.149.137-.078.137-.078.281-.156.942-.535 1.801-1.105 2.641-1.789l.336-.273c1.215-1.04 2.203-2.278 2.46-3.895a3.35 3.35 0 0 0-.757-2.34c-.773-.73-1.66-1.137-2.727-1.164-.66.024-1.296.14-1.937.297.508-.758.996-.937 1.875-1.125l.406-.094c1.676-.113 3.172.14 4.477 1.239m0 0" style="stroke:none;fill-rule:nonzero;fill:#5282a1;fill-opacity:1"/></svg>