<?xml version="1.0" encoding="UTF-8"?>
<svg version="1.1" xmlns="http://www.w3.org/2000/svg" width="64" height="64">
<path d="M0 0 C21.12 0 42.24 0 64 0 C64 21.12 64 42.24 64 64 C42.88 64 21.76 64 0 64 C0 42.88 0 21.76 0 0 Z " fill="#F5DD1D" transform="translate(0,0)"/>
<path d="M0 0 C4.30649943 0.76901776 5.76057998 2.30449088 8.5 5.625 C7.84 6.285 7.18 6.945 6.5 7.625 C3.77130593 7.59212417 1.2033382 7.06102229 -1.5 6.625 C-1.5 7.945 -1.5 9.265 -1.5 10.625 C-0.80132812 10.95113281 -0.10265625 11.27726562 0.6171875 11.61328125 C1.52726562 12.05027344 2.43734375 12.48726562 3.375 12.9375 C4.27992187 13.36675781 5.18484375 13.79601563 6.1171875 14.23828125 C8.5 15.625 8.5 15.625 10.5 18.625 C11 22 11 22 10.5 25.625 C7.95222379 28.61863705 6.34970221 30.20661498 2.53125 31.0703125 C-2.50811837 31.36104529 -5.61166926 29.94430673 -9.5 26.625 C-9.83 25.635 -10.16 24.645 -10.5 23.625 C-8.25 22.4375 -8.25 22.4375 -5.5 21.625 C-4.14664105 22.59772675 -2.81337396 23.5989266 -1.5 24.625 C1.1984589 24.40302187 1.1984589 24.40302187 3.5 23.625 C3.5 22.635 3.5 21.645 3.5 20.625 C2.88511719 20.31046875 2.27023438 19.9959375 1.63671875 19.671875 C0.82847656 19.24390625 0.02023438 18.8159375 -0.8125 18.375 C-1.61300781 17.95734375 -2.41351563 17.5396875 -3.23828125 17.109375 C-5.67308009 15.51140685 -6.97944493 14.0953024 -8.5 11.625 C-9 8.6875 -9 8.6875 -8.5 5.625 C-5.89210172 1.98974785 -4.4297642 0.79102932 0 0 Z " fill="#0C0B01" transform="translate(48.5,28.375)"/>
<path d="M0 0 C1.98 0 3.96 0 6 0 C6.11643304 3.89558088 6.18732909 7.79071258 6.25 11.6875 C6.30027344 13.34168945 6.30027344 13.34168945 6.3515625 15.02929688 C6.45073033 23.23543471 6.45073033 23.23543471 4.109375 27.20703125 C1.3519002 29.55088483 0.35666082 29.96635275 -3.3125 30.3125 C-7.55801703 29.95271042 -9.06972861 29.01906749 -12 26 C-12 25.34 -12 24.68 -12 24 C-10.35 23.34 -8.7 22.68 -7 22 C-6.34 22.66 -5.68 23.32 -5 24 C-3.68 23.67 -2.36 23.34 -1 23 C-0.67 15.41 -0.34 7.82 0 0 Z " fill="#0D0C01" transform="translate(29,29)"/>
</svg>
