<svg xmlns="http://www.w3.org/2000/svg" width="64" height="64"><path d="M63.738 36.063C65.977 18.53 53.598 2.5 36.094.261 18.594-1.977 2.5 10.402.262 27.906c-2.239 17.5 10.14 33.559 27.644 35.832 17.532 2.239 33.559-10.14 35.832-27.675m0 0" style="stroke:none;fill-rule:nonzero;fill:#ff6c37;fill-opacity:1"/><path d="m43.55 20.547-13.503 13.5-3.805-3.805c13.278-13.281 14.59-12.129 17.309-9.695m0 0" style="stroke:none;fill-rule:nonzero;fill:#fff;fill-opacity:1"/><path d="M30.047 34.367a.3.3 0 0 1-.223-.094l-3.84-3.808a.31.31 0 0 1 0-.45c13.504-13.5 14.91-12.222 17.758-9.66a.29.29 0 0 1 .094.223c0 .098-.031.16-.094.223l-13.5 13.472c-.035.063-.129.094-.195.094m-3.36-4.125 3.36 3.36L43.07 20.578c-2.367-2.113-3.968-2.75-16.382 9.664m0 0" style="stroke:none;fill-rule:nonzero;fill:#ff6c37;fill-opacity:1"/><path d="m33.918 37.918-3.676-3.68 13.5-13.5c3.613 3.649-1.793 9.567-9.824 17.18m0 0" style="stroke:none;fill-rule:nonzero;fill:#fff;fill-opacity:1"/><path d="M33.918 38.238a.3.3 0 0 1-.223-.093l-3.68-3.68c-.062-.067-.062-.13-.062-.227 0-.093.031-.16.094-.222l13.504-13.5a.305.305 0 0 1 .445 0 3.9 3.9 0 0 1 1.25 2.972c-.066 3.551-4.098 8.063-11.07 14.657a.5.5 0 0 1-.258.093m-3.23-4c2.046 2.082 2.914 2.914 3.23 3.235 5.375-5.121 10.59-10.368 10.625-13.985.031-.832-.29-1.664-.832-2.3Zm0 0" style="stroke:none;fill-rule:nonzero;fill:#ff6c37;fill-opacity:1"/><path d="m26.305 30.336 2.718 2.719q.1.099 0 .191c-.03.035-.03.035-.062.035l-5.633 1.215a.56.56 0 0 1-.605-.45.47.47 0 0 1 .129-.413l3.261-3.266c.063-.062.16-.094.192-.031m0 0" style="stroke:none;fill-rule:nonzero;fill:#fff;fill-opacity:1"/><path d="M23.234 34.816c-.48 0-.832-.386-.832-.863a.87.87 0 0 1 .254-.61l3.266-3.261a.49.49 0 0 1 .64 0l2.72 2.719c.19.16.19.445 0 .64a.53.53 0 0 1-.227.125l-5.63 1.22c-.062 0-.128.03-.19.03m2.977-4.129-3.137 3.137c-.066.063-.097.16-.031.254.031.098.125.129.223.098l5.277-1.153Zm0 0" style="stroke:none;fill-rule:nonzero;fill:#ff6c37;fill-opacity:1"/><path d="M50.684 13.059c-2.047-1.985-5.344-1.918-7.325.16a5.166 5.166 0 0 0 .16 7.328 5.17 5.17 0 0 0 6.27.703l-3.648-3.648Zm0 0" style="stroke:none;fill-rule:nonzero;fill:#fff;fill-opacity:1"/><path d="M47.102 22.305a5.501 5.501 0 1 1 3.808-9.47.3.3 0 0 1 .094.224.3.3 0 0 1-.094.226l-4.32 4.317 3.39 3.39a.31.31 0 0 1 0 .45c-.03.03-.03.03-.062.066a5.43 5.43 0 0 1-2.816.797m0-10.332c-2.688 0-4.864 2.175-4.832 4.863 0 2.687 2.175 4.863 4.863 4.828.734 0 1.472-.156 2.144-.512l-3.359-3.324a.29.29 0 0 1-.098-.226c0-.094.032-.16.098-.223l4.285-4.29c-.863-.734-1.95-1.116-3.101-1.116m0 0" style="stroke:none;fill-rule:nonzero;fill:#ff6c37;fill-opacity:1"/><path d="m50.781 13.156-.066-.066-4.574 4.512 3.617 3.617a6 6 0 0 0 .992-.77 5.126 5.126 0 0 0 .031-7.293m0 0" style="stroke:none;fill-rule:nonzero;fill:#fff;fill-opacity:1"/><path d="M49.79 21.57a.28.28 0 0 1-.224-.097l-3.648-3.645a.29.29 0 0 1-.098-.226c0-.094.032-.16.098-.223l4.543-4.543a.31.31 0 0 1 .45 0l.093.062c2.144 2.145 2.144 5.602.031 7.778-.32.316-.672.605-1.055.832-.093.031-.16.062-.19.062m-3.2-3.968 3.23 3.234c.258-.16.512-.387.703-.578 1.825-1.824 1.922-4.801.16-6.719Zm0 0" style="stroke:none;fill-rule:nonzero;fill:#ff6c37;fill-opacity:1"/><path d="M44.094 21.121a1.976 1.976 0 0 0-2.785 0L29.25 33.184l2.016 2.015L44.03 24c.832-.703.895-1.95.192-2.781-.067-.032-.098-.067-.13-.098m0 0" style="stroke:none;fill-rule:nonzero;fill:#fff;fill-opacity:1"/><path d="M31.23 35.52a.28.28 0 0 1-.222-.098l-2.016-2.016a.305.305 0 0 1 0-.445l12.063-12.063a2.28 2.28 0 0 1 3.23 0 2.28 2.28 0 0 1 0 3.23q-.046.05-.094.099L31.426 35.422q-.05.099-.196.098m-1.535-2.336 1.57 1.566 12.54-11.004c.703-.578.77-1.633.191-2.336-.574-.703-1.629-.77-2.332-.191-.035.031-.066.062-.129.093Zm0 0" style="stroke:none;fill-rule:nonzero;fill:#ff6c37;fill-opacity:1"/><path d="M20.004 46.91c-.129.063-.195.192-.16.32l.543 2.301c.129.32-.067.707-.418.801a.64.64 0 0 1-.703-.191l-3.52-3.489 11.488-11.484 3.965.062 2.688 2.688c-.64.543-4.512 4.289-13.883 8.992m0 0" style="stroke:none;fill-rule:nonzero;fill:#fff;fill-opacity:1"/><path d="M19.746 50.652c-.254 0-.512-.093-.672-.289l-3.488-3.484a.3.3 0 0 1-.094-.227c0-.093.031-.16.094-.222l11.488-11.485a.33.33 0 0 1 .223-.097l3.969.062c.093 0 .16.035.222.098l2.688 2.687c.062.063.097.16.097.254 0 .098-.035.16-.128.227l-.227.191c-3.39 2.977-7.996 5.95-13.723 8.797l.543 2.273c.098.415-.097.864-.48 1.086a1.1 1.1 0 0 1-.512.13m-3.52-4 3.297 3.266c.094.16.286.223.446.125.16-.094.226-.285.129-.445l-.543-2.305a.58.58 0 0 1 .32-.672c5.664-2.848 10.238-5.789 13.598-8.703l-2.368-2.367-3.68-.063Zm0 0" style="stroke:none;fill-rule:nonzero;fill:#ff6c37;fill-opacity:1"/><path d="m13.027 49.406 2.75-2.754 4.098 4.098-6.527-.45a.51.51 0 0 1-.45-.573c0-.13.032-.258.13-.32m0 0" style="stroke:none;fill-rule:nonzero;fill:#fff;fill-opacity:1"/><path d="m19.875 51.035-6.559-.445c-.48-.031-.8-.45-.77-.93.032-.191.099-.383.259-.512l2.75-2.75a.31.31 0 0 1 .449 0l4.094 4.094c.097.098.129.223.066.352q-.097.192-.289.191m-4.098-3.933-2.527 2.527c-.094.062-.094.223 0 .289.035.031.066.062.129.062l5.664.383ZM26.113 36.64a.32.32 0 0 1-.32-.32.29.29 0 0 1 .098-.226l3.101-3.102a.31.31 0 0 1 .45 0l2.015 2.016c.094.094.129.191.094.32a.36.36 0 0 1-.254.223l-5.121 1.09zm3.102-2.976-2.11 2.11 3.454-.735Zm0 0" style="stroke:none;fill-rule:nonzero;fill:#ff6c37;fill-opacity:1"/><path d="m31.2 35.23-3.52.77a.48.48 0 0 1-.575-.352c-.03-.16 0-.32.13-.449l1.949-1.953Zm0 0" style="stroke:none;fill-rule:nonzero;fill:#fff;fill-opacity:1"/><path d="M27.617 36.32c-.449 0-.8-.351-.8-.8 0-.223.097-.418.222-.575l1.953-1.953a.31.31 0 0 1 .45 0l2.015 2.016c.094.094.129.191.094.32a.36.36 0 0 1-.254.223l-3.52.77zm1.598-2.656-1.727 1.727c-.062.066-.062.129-.031.191.031.066.098.098.191.098l2.946-.64ZM50.813 16.227c-.063-.192-.29-.29-.481-.223-.191.062-.289.285-.223.48 0 .032.032.063.032.094.191.383.129.863-.13 1.215a.395.395 0 0 0 .032.512c.16.129.387.097.516-.063.476-.61.574-1.375.254-2.015m0 0" style="stroke:none;fill-rule:nonzero;fill:#ff6c37;fill-opacity:1"/></svg>