<?xml version="1.0" encoding="UTF-8"?>
<svg xmlns="http://www.w3.org/2000/svg" xmlns:xlink="http://www.w3.org/1999/xlink" width="64px" height="69px" viewBox="0 0 64 68" version="1.1">
<g id="surface1">
<path style=" stroke:none;fill-rule:nonzero;fill:rgb(86.666667%,0.392157%,19.607843%);fill-opacity:1;" d="M 35.386719 0.878906 C 35.644531 0.96875 35.902344 1.058594 36.167969 1.152344 C 38.320312 1.917969 40.464844 2.710938 42.609375 3.503906 C 44.25 4.113281 45.894531 4.691406 47.566406 5.21875 C 48.398438 5.484375 49.210938 5.78125 50.023438 6.109375 C 51.183594 6.574219 52.355469 6.96875 53.542969 7.351562 C 56.039062 8.167969 58.523438 9 60.953125 9.996094 C 61.671875 10.273438 62.410156 10.488281 63.152344 10.695312 C 63.28125 10.757812 63.410156 10.816406 63.542969 10.878906 C 63.820312 11.703125 63.722656 12.179688 63.601562 13.039062 C 63.554688 13.371094 63.511719 13.699219 63.46875 14.027344 C 63.429688 14.304688 63.429688 14.304688 63.390625 14.582031 C 63.242188 15.734375 63.117188 16.886719 62.984375 18.042969 C 62.957031 18.296875 62.929688 18.550781 62.898438 18.8125 C 62.808594 19.605469 62.71875 20.398438 62.628906 21.191406 C 61.96875 27.042969 61.96875 27.042969 61.605469 29.855469 C 61.3125 32.179688 61.0625 34.507812 60.800781 36.832031 C 60.121094 42.851562 60.121094 42.851562 59.757812 45.671875 C 59.558594 47.246094 59.386719 48.824219 59.214844 50.402344 C 59.183594 50.652344 59.15625 50.898438 59.128906 51.152344 C 59.089844 51.484375 59.089844 51.484375 59.054688 51.824219 C 58.972656 52.359375 58.972656 52.359375 58.742188 52.8125 C 58.59375 52.8125 58.441406 52.8125 58.285156 52.8125 C 58.285156 52.964844 58.285156 53.113281 58.285156 53.265625 C 57.988281 53.410156 57.988281 53.410156 57.683594 53.558594 C 56.039062 54.359375 54.457031 55.195312 52.898438 56.148438 C 52.34375 56.441406 52.34375 56.441406 51.65625 56.441406 C 51.65625 56.589844 51.65625 56.738281 51.65625 56.894531 C 51.367188 57.035156 51.367188 57.035156 51.070312 57.175781 C 48.664062 58.351562 46.347656 59.632812 44.058594 61.015625 C 43.371094 61.429688 42.679688 61.804688 41.957031 62.148438 C 40.792969 62.710938 39.6875 63.355469 38.570312 64.003906 C 37.007812 64.914062 35.433594 65.761719 33.800781 66.539062 C 33.136719 66.847656 33.136719 66.847656 32.570312 67.277344 C 32 67.546875 32 67.546875 31.324219 67.410156 C 30.628906 67.09375 29.984375 66.75 29.328125 66.355469 C 27.757812 65.429688 26.164062 64.5625 24.546875 63.714844 C 24.257812 63.5625 23.964844 63.40625 23.671875 63.253906 C 23.453125 63.140625 23.453125 63.140625 23.234375 63.023438 C 22.050781 62.398438 20.894531 61.734375 19.746094 61.050781 C 19.195312 60.722656 19.195312 60.722656 18.515625 60.519531 C 18.515625 60.371094 18.515625 60.222656 18.515625 60.066406 C 18.355469 60.042969 18.195312 60.019531 18.027344 59.996094 C 17.28125 59.820312 16.675781 59.519531 16 59.160156 C 16 59.011719 16 58.859375 16 58.707031 C 15.882812 58.6875 15.765625 58.664062 15.644531 58.644531 C 14.859375 58.414062 14.15625 58.042969 13.429688 57.671875 C 13.28125 57.597656 13.132812 57.523438 12.980469 57.445312 C 12.613281 57.261719 12.25 57.078125 11.886719 56.894531 C 11.886719 56.742188 11.886719 56.59375 11.886719 56.441406 C 11.738281 56.425781 11.589844 56.410156 11.4375 56.394531 C 9.878906 55.988281 8.492188 55.007812 7.109375 54.207031 C 6.601562 53.917969 6.601562 53.917969 5.917969 53.660156 C 5.253906 53.371094 4.96875 53.195312 4.570312 52.585938 C 4.296875 51.511719 4.253906 50.410156 4.207031 49.308594 C 4.148438 48.027344 3.980469 46.773438 3.796875 45.503906 C 3.386719 42.621094 3.085938 39.734375 2.789062 36.839844 C 2.515625 34.191406 2.21875 31.554688 1.835938 28.917969 C 1.636719 27.527344 1.484375 26.136719 1.355469 24.734375 C 1.339844 24.527344 1.320312 24.316406 1.300781 24.101562 C 1.28125 23.917969 1.265625 23.734375 1.25 23.542969 C 1.132812 22.304688 0.976562 21.070312 0.816406 19.835938 C 0.640625 18.480469 0.476562 17.125 0.3125 15.765625 C 0.285156 15.519531 0.253906 15.269531 0.21875 15.011719 C 0.0546875 13.621094 -0.03125 12.277344 0 10.878906 C 0.191406 10.8125 0.382812 10.746094 0.582031 10.675781 C 1.476562 10.363281 2.375 10.046875 3.269531 9.734375 C 3.433594 9.675781 3.597656 9.617188 3.765625 9.558594 C 5.625 8.90625 7.480469 8.25 9.328125 7.566406 C 11.261719 6.851562 13.214844 6.183594 15.167969 5.519531 C 16.875 4.9375 18.570312 4.328125 20.257812 3.699219 C 21.507812 3.238281 22.765625 2.84375 24.039062 2.46875 C 24.632812 2.285156 25.199219 2.074219 25.769531 1.839844 C 26.820312 1.414062 27.878906 1.011719 28.941406 0.625 C 29.183594 0.53125 29.183594 0.53125 29.429688 0.4375 C 31.652344 -0.359375 33.230469 0.0976562 35.386719 0.878906 Z M 35.386719 0.878906 "/>
<path style=" stroke:none;fill-rule:nonzero;fill:rgb(76.47059%,0.392157%,18.82353%);fill-opacity:1;" d="M 31.769531 0 C 33.816406 0.253906 33.816406 0.253906 34.6875 0.636719 C 35.976562 1.175781 37.289062 1.621094 38.613281 2.066406 C 40.726562 2.785156 42.824219 3.53125 44.914062 4.308594 C 47.667969 5.328125 50.4375 6.289062 53.21875 7.234375 C 54.414062 7.640625 55.605469 8.046875 56.800781 8.457031 C 57.007812 8.527344 57.21875 8.597656 57.433594 8.671875 C 58.621094 9.082031 59.792969 9.519531 60.957031 9.996094 C 61.675781 10.273438 62.410156 10.488281 63.152344 10.695312 C 63.28125 10.757812 63.410156 10.816406 63.542969 10.878906 C 63.820312 11.703125 63.722656 12.179688 63.601562 13.039062 C 63.554688 13.371094 63.511719 13.699219 63.46875 14.027344 C 63.441406 14.210938 63.417969 14.394531 63.390625 14.582031 C 63.242188 15.734375 63.117188 16.886719 62.984375 18.042969 C 62.957031 18.296875 62.929688 18.550781 62.898438 18.8125 C 62.808594 19.605469 62.71875 20.398438 62.628906 21.191406 C 61.96875 27.042969 61.96875 27.042969 61.605469 29.855469 C 61.3125 32.179688 61.0625 34.507812 60.800781 36.832031 C 60.121094 42.851562 60.121094 42.851562 59.757812 45.671875 C 59.558594 47.246094 59.386719 48.824219 59.214844 50.402344 C 59.183594 50.652344 59.15625 50.898438 59.128906 51.152344 C 59.101562 51.375 59.078125 51.597656 59.054688 51.824219 C 58.972656 52.359375 58.972656 52.359375 58.742188 52.8125 C 58.59375 52.8125 58.441406 52.8125 58.285156 52.8125 C 58.285156 52.964844 58.285156 53.113281 58.285156 53.265625 C 58.085938 53.363281 57.886719 53.457031 57.683594 53.558594 C 56.039062 54.359375 54.457031 55.195312 52.898438 56.148438 C 52.34375 56.441406 52.34375 56.441406 51.65625 56.441406 C 51.65625 56.589844 51.65625 56.738281 51.65625 56.894531 C 51.367188 57.035156 51.367188 57.035156 51.070312 57.175781 C 48.664062 58.351562 46.347656 59.632812 44.058594 61.015625 C 43.371094 61.429688 42.679688 61.804688 41.957031 62.148438 C 40.792969 62.710938 39.6875 63.355469 38.570312 64.003906 C 36.992188 64.921875 35.402344 65.773438 33.757812 66.5625 C 33.113281 66.863281 33.113281 66.863281 32.457031 67.320312 C 32.230469 67.320312 32.003906 67.320312 31.769531 67.320312 C 31.769531 63.503906 31.769531 59.691406 31.769531 55.761719 C 32.828125 55.683594 33.882812 55.609375 34.972656 55.535156 C 35.90625 54.789062 36.566406 54.195312 37.257812 53.265625 C 37.40625 53.085938 37.550781 52.90625 37.703125 52.722656 C 39.125 50.847656 39.363281 49.328125 39.34375 47.027344 C 39.347656 46.695312 39.351562 46.363281 39.351562 46.027344 C 39.359375 45.332031 39.355469 44.636719 39.347656 43.941406 C 39.339844 43.0625 39.351562 42.179688 39.367188 41.300781 C 39.457031 36.085938 39.457031 36.085938 36.800781 31.734375 C 36.800781 31.582031 36.800781 31.433594 36.800781 31.28125 C 36.511719 31.503906 36.511719 31.503906 36.214844 31.734375 C 35.199219 32.1875 35.199219 32.1875 31.769531 32.1875 C 31.769531 21.566406 31.769531 10.945312 31.769531 0 Z M 31.769531 0 "/>
<path style=" stroke:none;fill-rule:nonzero;fill:rgb(99.607843%,99.215686%,99.215686%);fill-opacity:1;" d="M 26.285156 31.28125 C 26.960938 31.417969 27.285156 31.5625 27.886719 31.960938 C 28.921875 32.046875 29.960938 32.035156 31 32.03125 C 31.511719 32.03125 32.023438 32.035156 32.53125 32.042969 C 32.859375 32.042969 33.1875 32.042969 33.511719 32.042969 C 33.957031 32.042969 33.957031 32.042969 34.410156 32.042969 C 35.246094 31.953125 35.65625 31.742188 36.34375 31.28125 C 36.800781 31.28125 36.800781 31.28125 37.382812 31.851562 C 39.84375 34.820312 39.695312 38.191406 39.628906 41.835938 C 39.613281 42.710938 39.621094 43.582031 39.632812 44.457031 C 39.707031 50.898438 39.707031 50.898438 37.96875 52.832031 C 37.664062 53.136719 37.347656 53.429688 37.027344 53.71875 C 36.867188 53.925781 36.707031 54.132812 36.539062 54.34375 C 35.597656 55.496094 34.851562 55.886719 33.359375 56.046875 C 32.761719 56.058594 32.167969 56.058594 31.570312 56.042969 C 31.417969 56.042969 31.265625 56.039062 31.105469 56.039062 C 29.300781 56.003906 27.867188 55.964844 26.542969 54.683594 C 26.085938 54.078125 26.085938 54.078125 25.875 53.707031 C 25.59375 53.234375 25.59375 53.234375 25.160156 52.714844 C 23.734375 50.851562 23.488281 49.339844 23.503906 47.042969 C 23.5 46.710938 23.5 46.378906 23.496094 46.046875 C 23.488281 45.355469 23.488281 44.660156 23.496094 43.96875 C 23.5 43.265625 23.496094 42.5625 23.480469 41.859375 C 23.398438 37.832031 23.332031 34.394531 26.285156 31.28125 Z M 26.285156 31.28125 "/>
<path style=" stroke:none;fill-rule:nonzero;fill:rgb(99.607843%,98.431373%,98.823529%);fill-opacity:1;" d="M 32.230469 11.785156 C 33.511719 11.785156 34.792969 11.785156 36.113281 11.785156 C 36.472656 12.617188 36.832031 13.449219 37.1875 14.28125 C 37.308594 14.5625 37.433594 14.84375 37.554688 15.128906 C 37.730469 15.535156 37.902344 15.941406 38.078125 16.347656 C 38.183594 16.589844 38.289062 16.835938 38.398438 17.085938 C 38.628906 17.679688 38.628906 17.679688 38.628906 18.132812 C 38.921875 18.105469 39.210938 18.078125 39.511719 18.050781 C 40.605469 17.949219 41.695312 17.847656 42.789062 17.746094 C 43.257812 17.703125 43.730469 17.660156 44.199219 17.613281 C 44.878906 17.550781 45.558594 17.488281 46.238281 17.425781 C 46.550781 17.394531 46.550781 17.394531 46.867188 17.363281 C 48.316406 17.234375 49.746094 17.203125 51.199219 17.226562 C 50.855469 18.953125 50.855469 18.953125 50.675781 19.710938 C 50.449219 20.695312 50.265625 21.621094 50.226562 22.632812 C 50.132812 23.804688 49.980469 24.734375 49.144531 25.613281 C 47.132812 26.785156 44.859375 27.433594 42.636719 28.089844 C 41.738281 28.359375 40.875 28.671875 40 29.011719 C 39.597656 29.164062 39.191406 29.316406 38.789062 29.46875 C 38.363281 29.628906 37.9375 29.789062 37.515625 29.949219 C 37.1875 30.070312 37.1875 30.070312 36.855469 30.195312 C 36.648438 30.273438 36.445312 30.351562 36.230469 30.433594 C 36.042969 30.503906 35.855469 30.574219 35.664062 30.644531 C 35.195312 30.820312 35.195312 30.820312 34.742188 31.054688 C 33.914062 31.054688 33.082031 31.054688 32.230469 31.054688 C 32.230469 24.695312 32.230469 18.335938 32.230469 11.785156 Z M 32.230469 11.785156 "/>
<path style=" stroke:none;fill-rule:nonzero;fill:rgb(99.607843%,98.823529%,99.215686%);fill-opacity:1;" d="M 27.199219 11.785156 C 28.40625 11.785156 29.613281 11.785156 30.855469 11.785156 C 30.855469 18.070312 30.855469 24.351562 30.855469 30.828125 C 28.945312 30.828125 27.867188 30.785156 26.199219 30.140625 C 26.003906 30.066406 25.8125 29.996094 25.613281 29.921875 C 24.996094 29.691406 24.382812 29.460938 23.769531 29.226562 C 23.367188 29.074219 22.964844 28.925781 22.5625 28.773438 C 21.761719 28.476562 20.964844 28.175781 20.167969 27.875 C 19.351562 27.566406 18.539062 27.269531 17.71875 26.976562 C 17.519531 26.902344 17.320312 26.832031 17.113281 26.757812 C 16.730469 26.621094 16.351562 26.488281 15.96875 26.351562 C 14.679688 25.890625 14.679688 25.890625 14.171875 25.386719 C 14.003906 24.777344 13.859375 24.175781 13.726562 23.558594 C 13.6875 23.375 13.648438 23.195312 13.605469 23.011719 C 13.476562 22.433594 13.351562 21.855469 13.230469 21.277344 C 13.144531 20.886719 13.058594 20.496094 12.96875 20.105469 C 12.757812 19.144531 12.550781 18.1875 12.34375 17.226562 C 14.933594 17.128906 17.484375 17.425781 20.058594 17.679688 C 20.507812 17.722656 20.957031 17.765625 21.40625 17.8125 C 22.5 17.917969 23.59375 18.023438 24.6875 18.132812 C 24.714844 17.933594 24.742188 17.734375 24.769531 17.527344 C 24.90625 16.824219 25.09375 16.261719 25.378906 15.605469 C 25.46875 15.398438 25.5625 15.1875 25.65625 14.972656 C 25.75 14.757812 25.84375 14.542969 25.941406 14.324219 C 26.085938 13.992188 26.085938 13.992188 26.230469 13.660156 C 26.9375 12.046875 26.9375 12.046875 27.199219 11.785156 Z M 27.199219 11.785156 "/>
<path style=" stroke:none;fill-rule:nonzero;fill:rgb(99.607843%,97.647059%,98.039216%);fill-opacity:1;" d="M 14.628906 26.972656 C 14.996094 27.082031 15.363281 27.191406 15.730469 27.300781 C 15.9375 27.359375 16.140625 27.421875 16.351562 27.484375 C 17.882812 27.945312 18.9375 28.378906 19.886719 29.691406 C 20.289062 30.050781 20.703125 30.390625 21.125 30.730469 C 21.484375 31.054688 21.484375 31.054688 21.941406 31.734375 C 23.414062 31.621094 23.414062 31.621094 24.914062 31.507812 C 24.054688 33.027344 24.054688 33.027344 23.535156 33.652344 C 22.867188 34.648438 22.949219 35.707031 22.945312 36.867188 C 22.941406 37.097656 22.9375 37.324219 22.933594 37.5625 C 22.925781 38.292969 22.917969 39.023438 22.914062 39.75 C 22.90625 40.246094 22.902344 40.742188 22.894531 41.238281 C 22.875 42.453125 22.863281 43.667969 22.855469 44.878906 C 21.957031 44.460938 21.269531 43.882812 20.527344 43.238281 C 19.074219 41.980469 17.589844 40.757812 16.097656 39.542969 C 15.9375 39.414062 15.78125 39.285156 15.617188 39.152344 C 15.476562 39.039062 15.335938 38.925781 15.1875 38.808594 C 14.855469 38.535156 14.855469 38.535156 14.628906 38.308594 C 14.605469 37.953125 14.601562 37.597656 14.601562 37.242188 C 14.601562 37.015625 14.601562 36.785156 14.601562 36.554688 C 14.605469 36.304688 14.605469 36.058594 14.605469 35.804688 C 14.605469 35.554688 14.605469 35.304688 14.605469 35.042969 C 14.609375 34.238281 14.613281 33.433594 14.613281 32.625 C 14.617188 32.082031 14.617188 31.535156 14.617188 30.992188 C 14.621094 29.652344 14.625 28.3125 14.628906 26.972656 Z M 14.628906 26.972656 "/>
<path style=" stroke:none;fill-rule:nonzero;fill:rgb(99.607843%,98.823529%,98.823529%);fill-opacity:1;" d="M 48.457031 26.972656 C 48.515625 28.585938 48.554688 30.199219 48.582031 31.8125 C 48.59375 32.359375 48.609375 32.910156 48.628906 33.457031 C 48.65625 34.246094 48.671875 35.035156 48.679688 35.828125 C 48.691406 36.070312 48.703125 36.316406 48.714844 36.566406 C 48.71875 37.625 48.695312 38.269531 47.960938 39.078125 C 47.382812 39.539062 46.792969 39.945312 46.171875 40.347656 C 45.886719 40.578125 45.605469 40.8125 45.328125 41.054688 C 45.203125 41.164062 45.078125 41.269531 44.949219 41.382812 C 44.824219 41.488281 44.699219 41.597656 44.570312 41.707031 C 40.863281 44.878906 40.863281 44.878906 40.457031 44.878906 C 40.457031 44.753906 40.460938 44.628906 40.460938 44.503906 C 40.476562 43.191406 40.480469 41.882812 40.472656 40.574219 C 40.472656 40.085938 40.476562 39.601562 40.480469 39.113281 C 40.523438 35.96875 40.429688 34.039062 38.171875 31.734375 C 38.171875 31.582031 38.171875 31.433594 38.171875 31.28125 C 38.34375 31.355469 38.515625 31.429688 38.691406 31.507812 C 39.609375 31.789062 40.1875 31.878906 41.144531 31.734375 C 42.019531 31.113281 42.703125 30.300781 43.417969 29.507812 C 44.78125 28.023438 46.339844 26.972656 48.457031 26.972656 Z M 48.457031 26.972656 "/>
<path style=" stroke:none;fill-rule:nonzero;fill:rgb(99.215686%,97.254902%,97.647059%);fill-opacity:1;" d="M 37.027344 11.785156 C 38.902344 11.449219 40.835938 11.140625 42.503906 12.226562 C 43.941406 13.445312 45.246094 14.835938 46.398438 16.320312 C 46.398438 16.394531 46.398438 16.46875 46.398438 16.546875 C 44.089844 17.054688 41.671875 17.039062 39.3125 17 C 38.410156 15.3125 37.695312 13.582031 37.027344 11.785156 Z M 37.027344 11.785156 "/>
<path style=" stroke:none;fill-rule:nonzero;fill:rgb(99.607843%,97.647059%,98.039216%);fill-opacity:1;" d="M 26.058594 11.785156 C 25.90625 12.957031 25.390625 13.96875 24.898438 15.03125 C 24.8125 15.21875 24.726562 15.410156 24.640625 15.605469 C 24.425781 16.070312 24.214844 16.535156 24 17 C 21.59375 17.066406 19.292969 16.867188 16.914062 16.546875 C 16.996094 16.453125 17.078125 16.355469 17.164062 16.257812 C 17.28125 16.125 17.394531 15.996094 17.511719 15.859375 C 17.636719 15.714844 17.765625 15.570312 17.894531 15.417969 C 18.144531 15.128906 18.386719 14.832031 18.625 14.53125 C 20.824219 11.761719 22.574219 11.347656 26.058594 11.785156 Z M 26.058594 11.785156 "/>
<path style=" stroke:none;fill-rule:nonzero;fill:rgb(99.215686%,97.254902%,97.647059%);fill-opacity:1;" d="M 44.800781 42.839844 C 45.105469 44.519531 45.390625 46.257812 44.398438 47.75 C 43.296875 49.035156 42.035156 50.203125 40.6875 51.226562 C 40.609375 51.226562 40.535156 51.226562 40.457031 51.226562 C 40.082031 46.847656 40.082031 46.847656 40.910156 45.503906 C 41.496094 45 42.082031 44.597656 42.742188 44.199219 C 43.050781 43.9375 43.359375 43.667969 43.65625 43.390625 C 44.34375 42.839844 44.34375 42.839844 44.800781 42.839844 Z M 44.800781 42.839844 "/>
<path style=" stroke:none;fill-rule:nonzero;fill:rgb(99.607843%,97.647059%,98.039216%);fill-opacity:1;" d="M 18.515625 42.839844 C 18.9375 43.148438 19.355469 43.457031 19.769531 43.78125 C 20.34375 44.21875 20.34375 44.21875 21.023438 44.570312 C 21.84375 45.074219 22.320312 45.4375 22.855469 46.238281 C 23.171875 47.875 23.011719 49.578125 22.855469 51.226562 C 22.710938 51.101562 22.710938 51.101562 22.558594 50.96875 C 21.882812 50.394531 21.207031 49.828125 20.5 49.289062 C 18.660156 47.796875 18.660156 47.796875 18.390625 46.601562 C 18.277344 45.335938 18.371094 44.097656 18.515625 42.839844 Z M 18.515625 42.839844 "/>
</g>
</svg>
