<svg xmlns="http://www.w3.org/2000/svg" width="64" height="64"><path d="M18.574-.012q.142.001.29-.004h.66q.468.001.937-.004h.805q1.323-.003 2.648-.007h.691q2.14-.007 4.286-.008h1.242l3.996-.012q2.05-.007 4.101-.008c.766 0 1.536 0 2.301-.004.657-.004 1.309-.004 1.965-.004q.497 0 1-.003c2.566-.02 2.566-.02 3.746.601l.242.125c.188.102.364.215.54.336l.19.125c1.395.953 2.36 2.25 3.067 3.89.125.266.262.512.407.766.3.535.574 1.086.847 1.641.235.473.485.922.758 1.367.094.192.094.192.094.547h.16l.129.254c.054.113.113.223.168.336q.045.082.086.168c.136.262.273.52.425.77.125.21.223.41.317.64.183.414.394.8.621 1.188.258.457.496.91.707 1.394.18.418.375.79.61 1.164.195.34.359.695.523 1.05.207.434.433.845.676 1.255.12.215.222.433.32.66.203.465.445.898.691 1.336.16.285.305.578.45.871q.175.352.363.7c.222.429.445.859.66 1.292q.404.804.836 1.59.124.235.254.465.053.104.113.207.116.235.227.476c.125.278.265.54.418.801q.408.732.757 1.5c.122.254.243.496.391.735.156.265.258.52.363.816q.047.14.098.277c.238.836.277 1.637.273 2.508q.002.294.004.594c.004 1.039-.12 1.996-.5 2.953-.039.102-.078.2-.117.305-.129.273-.273.48-.45.718q-.111.242-.218.489c-.172.394-.36.77-.566 1.14q-.352.613-.649 1.262a22 22 0 0 1-.789 1.508c-.242.437-.46.89-.68 1.34-.16.32-.32.636-.495.945-.114.2-.215.39-.31.602-.163.359-.355.695-.546 1.039-.297.535-.574 1.07-.812 1.644a7 7 0 0 1-.344.63c-.258.421-.477.862-.692 1.312-.25.52-.507 1.02-.812 1.504a6 6 0 0 0-.297.609c-.152.351-.324.684-.512 1.016-.234.417-.449.835-.656 1.273a22 22 0 0 1-.832 1.598c-.121.21-.121.21-.203.402h-.16l-.024.234c-.058.317-.148.5-.312.766a6 6 0 0 1-.153.254l-.148.258q-.374.662-.707 1.347c-.227.47-.469.926-.719 1.38-.133.245-.258.488-.375.745-.902 2.004-2.597 3.442-4.48 4.172-1.012.336-2.11.25-3.153.246-.336-.004-.671 0-1.011 0h-1.97c-.534-.004-1.07-.004-1.6-.004H38.5q-.23-.001-.465.004-2.173-.001-4.351-.007h-3.727q-2.166.005-4.34 0h-4.242q-.498-.005-.996-.004c-.3.004-.606 0-.91 0h-.48c-1.669-.02-3.415-1.043-4.61-2.32-.176-.227-.176-.227-.176-.407q-.07-.029-.14-.062c-.223-.141-.317-.301-.458-.536l-.144-.246a3 3 0 0 1-.133-.222l-.168-.254a9 9 0 0 1-.383-.797 7 7 0 0 0-.472-.922 10 10 0 0 1-.614-1.184c-.222-.472-.449-.922-.726-1.359a6 6 0 0 1-.297-.61c-.203-.46-.441-.886-.691-1.32-.293-.492-.551-.988-.786-1.515a14 14 0 0 0-.476-.95l-.211-.394-.106-.195c-.148-.278-.289-.559-.433-.836-.195-.387-.395-.766-.594-1.145a35 35 0 0 1-.508-1.012q-.244-.502-.523-.98a8 8 0 0 1-.469-.914c-.203-.469-.445-.899-.691-1.336-.16-.29-.305-.578-.45-.871-.164-.332-.34-.66-.511-.984q-.23-.444-.457-.895a52 52 0 0 0-.696-1.309q-.322-.596-.617-1.21c-.285-.598-.597-1.172-.91-1.75C.88 36.315.88 36.315.88 36h-.16l-.27-.66c-.027-.063-.05-.125-.078-.188q-.034-.088-.074-.183C.273 34.91.254 34.855.23 34.8c-.195-.614-.253-1.211-.257-1.86v-.23c0-.164-.004-.324-.004-.488q.001-.366-.004-.73c-.008-.907.043-1.669.355-2.516l.118-.325.101-.234.102-.246L.719 28h.16l.047-.207c.222-.664.562-1.262.898-1.86.235-.413.446-.835.649-1.265.246-.523.511-1.023.793-1.523.218-.399.422-.805.625-1.211q.306-.605.629-1.192.174-.334.332-.676c.218-.453.464-.882.722-1.308.203-.344.348-.692.492-1.07.098-.192.204-.38.309-.567q.33-.58.625-1.183a24 24 0 0 1 .363-.7q.374-.72.742-1.453.453-.896.91-1.785h.16q.03-.11.063-.223c.196-.613.485-1.156.801-1.699.316-.547.586-1.101.832-1.687.149-.313.316-.594.492-.887.219-.371.41-.758.606-1.145.242-.472.48-.941.734-1.406.125-.234.242-.46.352-.703.136-.3.297-.574.465-.852l.093-.152c.176-.285.313-.433.59-.578l.07-.164c.313-.672 1.047-1.098 1.622-1.453.074-.047.144-.094.222-.14A8 8 0 0 1 17.875.09c.254-.094.434-.102.7-.102M29.906 11.57c-.644.93-.586 2-.582 3.11v.543c-.004.488 0 .976 0 1.464v4.122c.004.992 0 1.984 0 2.98v4.09c-.004.48 0 .96 0 1.437v.528c-.004 1.144.004 2.187.754 3.07.695.64 1.445.758 2.32.688.72-.184 1.262-.672 1.692-1.329.379-.73.289-1.582.281-2.394 0-.188.004-.379.004-.567 0-.507 0-1.019-.004-1.527q-.005-.803-.004-1.605.001-1.342-.004-2.688-.005-1.551-.004-3.11c0-1.1-.004-2.206-.004-3.312v-.953c0-.5-.003-.996-.003-1.496q-.005-.276-.004-.55v-.97c-.008-.664-.223-1.07-.621-1.558q-.093-.106-.184-.223c-.512-.574-.945-.742-1.664-.765-.852.03-1.383.332-1.973 1.015m-8.758 3.72c-.085.081-.085.081-.171.167q-.16.157-.32.32c-.15.133-.15.133-.31.22-.19.108-.285.237-.417.421a5 5 0 0 1-.614.684c-.41.382-.816.863-1.046 1.41-.075.156-.075.156-.313.242a7 7 0 0 0-.34.574q-.097.171-.195.344l-.094.172c-.117.199-.242.386-.371.574-.348.539-.578 1.148-.828 1.75q-.2.485-.43.953c-.265.59-.414 1.207-.566 1.84q-.07.281-.153.55a18 18 0 0 0-.695 4.446c-.004.086-.004.086-.004.172-.058 2.25.285 4.41.899 6.547q.088.31.172.62c.261.962.636 1.821 1.078 2.7l.222.469a10 10 0 0 0 .899 1.515c.164.243.164.243.285.47.133.241.285.437.457.644q.329.396.645.804a14.8 14.8 0 0 0 2.128 2.204c.243.21.243.21.41.402.153.168.29.262.481.367.262.156.492.324.727.524.593.476 1.277.785 1.937 1.125q.355.188.7.382c.702.391 1.449.594 2.21.785l.219.06c3.078.773 5.906.667 8.957-.235.074-.024.152-.043.227-.067.48-.136.933-.308 1.386-.527l.196-.094c1.16-.562 2.308-1.183 3.3-2.07l.254-.149c.344-.21.617-.507.903-.808.172-.172.343-.32.535-.469.281-.23.496-.492.719-.793.191-.238.406-.437.628-.637.196-.21.325-.449.473-.699q.294-.396.594-.781c.23-.313.414-.652.601-.996l.2-.348c.382-.664.726-1.32.996-2.05q.11-.274.215-.547l.28-.711c.06-.153.122-.297.184-.446.188-.488.286-1.008.399-1.52q.04-.164.074-.335c.727-3.328.645-6.55-.113-9.863a6 6 0 0 0-.051-.227c-.187-.824-.398-1.594-.746-2.352-.082-.187-.168-.37-.25-.558q-.06-.122-.117-.25a14 14 0 0 1-.223-.559c-.144-.36-.312-.691-.492-1.027-.031-.063-.066-.121-.098-.184a8 8 0 0 0-.258-.445h-.16l-.058-.238a2.3 2.3 0 0 0-.399-.735c-.058-.078-.113-.152-.176-.23l-.164-.219-.129-.172-.234-.3-.23-.301a20 20 0 0 0-1.008-1.203l-.14-.165a5.5 5.5 0 0 0-.891-.792 16 16 0 0 1-.36-.36c-.574-.578-1.074-.734-1.832-.719-.597.036-1.058.235-1.48.723-.407.676-.657 1.313-.559 2.133.258.937.664 1.402 1.348 1.984.203.18.383.383.566.594l.317.293c.273.266.484.547.695.879.113.18.113.18.3.371.887 1.012 1.68 2.57 2.055 3.914.067.238.141.473.211.707.746 2.438.926 5.09.414 7.613l-.07.348c-.344 1.531-.828 3.047-1.648 4.352-.172.277-.32.574-.47.87-.151.25-.331.442-.526.653q-.165.23-.329.465a6.2 6.2 0 0 1-1.062 1.129c-.215.195-.41.406-.606.629a5.5 5.5 0 0 1-.796.62c-.168.118-.34.235-.508.352q-.142.094-.278.188l-.414.285c-.398.273-.832.43-1.273.598l-.387.152c-.824.316-1.625.59-2.488.738l-.277.047c-2.305.309-4.711-.047-6.825-1.121a6 6 0 0 0-.43-.203 12 12 0 0 1-.976-.57c-.176-.121-.176-.121-.348-.11v-.176a9 9 0 0 0-.46-.308c-.586-.38-1.051-.852-1.536-1.383q-.098-.106-.203-.223c-.262-.297-.508-.613-.754-.93q-.08-.087-.16-.179h-.16q-.032-.074-.062-.148-.167-.343-.356-.668-.066-.117-.137-.239-.134-.228-.273-.457a8.2 8.2 0 0 1-.738-1.55q-.043-.118-.09-.235L19.71 36c-.027-.078-.059-.156-.086-.234-1.18-3.22-1.031-7.348.164-10.52.023-.062.047-.129.074-.191.317-.844.653-1.637 1.125-2.387.047-.078.09-.152.137-.234.3-.489.625-.93.98-1.368.063-.078.122-.156.188-.238.36-.453.715-.851 1.148-1.21.95-.79.95-.79 1.457-1.93.047-.72.086-1.407-.316-2.012-.555-.668-.91-1.055-1.75-1.102-.71.008-1.156.196-1.684.715m0 0" style="stroke:none;fill-rule:nonzero;fill:#67bb44;fill-opacity:1"/><path d="M14.844 1.957c-.13.344-.332.563-.57.82l-.22.243c-.054.058-.113.117-.167.18q-.08-.044-.16-.09a11 11 0 0 1 .316-.442h.16c.02-.05.04-.106.063-.156.132-.266.285-.555.578-.555m0 0" style="stroke:none;fill-rule:nonzero;fill:#437a2c;fill-opacity:1"/></svg>