<svg xmlns="http://www.w3.org/2000/svg" width="64" height="64"><path d="m29.375 3.875.012.238c.183 3.149.578 6.485 2.129 9.293.109.219.109.219.109.469.145.016.285.035.434.05 6.804.848 13.605 2.348 19.316 6.325q.104.074.215.148c2.133 1.5 4.426 3.383 5.66 5.727v.375c-.066.008-.137.02-.203.027-6.43.864-12.766 1.965-19.047 3.598.02.113.035.23.055.348.07.43.136.863.207 1.293q.042.276.086.554l.129.809q.035.238.078.488c.144 1 .215 1.992.218 3.004.004.117.004.23.004.348q.005.553.004 1.11v.382c0 1.875-.062 3.691-.406 5.539q-.032.176-.062.36c-.641 3.613-1.84 7.038-3.516 10.296l-.2.387c-.19.367-.394.723-.597 1.082l-.191.367c-.48.817-.48.817-1.004.985a7 7 0 0 1-1.164 0l-.446-.016c-.48-.02-.965-.05-1.445-.086q-.25-.019-.5-.031c-6.621-.438-15.168-1.574-19.922-6.696-.984-1.136-1.504-2.574-1.433-4.078.34-3.011 2.433-5.21 4.648-7.086a27 27 0 0 0 1.777-1.675c.348-.352.696-.692 1.07-1.012.993-.848 1.891-1.8 2.735-2.797q.152-.169.305-.344c2.91-3.293 4.332-6.613 4.07-11.031-.348-3.973-2.434-6.555-5.059-9.324-.789-.86-1.554-1.774-1.601-2.988.09-.797.504-1.458 1.074-2.008 2.965-2.348 8.645-4.43 12.461-4.43m-3.437 2.258-.454.117a41 41 0 0 0-2.812.852c-.106.035-.211.074-.317.109-.523.152-.523.152-.855.539.7.137 1.395.277 2.094.414l.71.14c1.352.27 2.7.516 4.071.696-.125-1.074-.246-2.145-.375-3.25-.719 0-1.367.203-2.062.383m-7.61 3.023c-.098.074-.2.153-.3.227-.274.238-.477.426-.653.742.027.375.066.566.336.836.73.469 1.434.746 2.273.969q.176.05.356.101c.64.2.64.2 1.285.094-.086-.098-.168-.195-.258-.293a30 30 0 0 1-1.98-2.543c-.125-.18-.258-.36-.387-.539-.254 0-.48.258-.672.406m2.797-.031c.75 1.309 1.852 2.402 2.875 3.5.957-.434 1.836-.895 2.672-1.54.105-.081.105-.081.215-.163.168-.133.328-.277.488-.422v-.25l-2.55-.48-.868-.165-1.246-.234q-.192-.036-.395-.074l-.363-.07q-.156-.03-.32-.059c-.254-.05-.254-.05-.508-.043m7.625 2q-.098.094-.203.188A18 18 0 0 1 26.375 13c.402.23.746.305 1.203.355q.204.023.406.051l.422.047q.21.026.426.05.522.065 1.043.122c-.14-.395-.281-.785-.422-1.18-.039-.113-.078-.222-.121-.34-.059-.16-.059-.16-.117-.324q-.052-.144-.106-.3c-.09-.254-.09-.254-.359-.356m-9 2.25c.3.496.633.898 1.031 1.32.766.832 1.356 1.785 1.844 2.805.422-.184.707-.426 1.04-.742.808-.742 1.694-1.371 2.585-2.008l-.125-.25c-.305-.07-.602-.129-.914-.176l-.281-.047q-.447-.072-.899-.144-.585-.093-1.172-.192l-.285-.046a28 28 0 0 1-2.137-.45c-.32-.082-.32-.082-.687-.07m10.375 1.75q.051.235.11.477c.25 1.128.43 2.242.515 3.398.512-.18.918-.434 1.367-.734 1.203-.797 2.485-1.461 3.758-2.141V16q-.957-.158-1.914-.312-.328-.052-.648-.11-.475-.075-.942-.152l-.289-.047c-.652-.106-1.3-.184-1.957-.254m-1.75 0c-1.168.668-2.234 1.363-3.25 2.25q-.262.223-.523.445l-.352.305c.406.223.8.344 1.246.457.149.04.293.074.442.113q.227.06.46.117a62.906 62.906 0 0 0 2.852.688c.105-2.324.105-2.324-.875-4.375m10.375 1.5c-.027.082-.05.164-.078.25-.926 2.867-.926 2.867-1.543 4.102-.149.261-.149.261-.129.523a54 54 0 0 0 1.895-.656 74 74 0 0 1 5.445-1.762q.52-.151 1.035-.332c-1.156-.773-2.664-1.156-3.992-1.54q-.159-.044-.317-.089a21 21 0 0 0-2.316-.496m-3.117 1.156q-.182.1-.371.203-1.261.696-2.48 1.461c-.102.063-.2.125-.305.188a7 7 0 0 1-.282.18q-.118.074-.242.156c-.238.168-.238.168-.453.531q.118.051.242.11l1.086.492q.187.082.379.171c.602.274 1.203.547 1.793.852.531-1.027 1.043-2.062 1.484-3.133l.11-.262c.21-.527.383-1.054.531-1.605-.527 0-1.04.406-1.492.656M23.5 19.5l.047.27c.164.96.293 1.918.406 2.886q.026.211.05.43c.04.348.083.691.122 1.039.418-.2.707-.422 1.047-.742a25 25 0 0 1 1.84-1.52c.445-.343.847-.707 1.238-1.113a49 49 0 0 0-4.75-1.25M48 20c-.066.133-.133.262-.203.398-1.27 2.473-2.883 4.614-4.672 6.727.54.164.984.059 1.527-.055q.316-.065.637-.125c.113-.023.223-.047.34-.07 1.98-.398 3.96-.754 5.957-1.055l.312-.047q1.363-.205 2.727-.398c-.262-.574-.656-.95-1.102-1.39q-.127-.125-.253-.255a19 19 0 0 0-2.633-2.144c-.242-.172-.492-.34-.739-.508q-.11-.075-.226-.152c-.54-.356-1.09-.645-1.672-.926m-11.125 3.125c.418.438.848.805 1.336 1.156 1.102.817 2.082 1.739 3.039 2.719 1.867-1.852 3.363-3.898 4.75-6.125.113-.176.113-.176.227-.36.168-.25.168-.25.148-.515-3.004 0-6.777 1.957-9.5 3.125m-6.5-1.5c-.027.11-.059.215-.086.324a24 24 0 0 1-.922 2.73c-.133.301-.133.301-.117.571.488-.187.95-.406 1.41-.648.074-.04.149-.075.223-.114.152-.082.308-.16.46-.242l.704-.363c.805-.414.805-.414 1.578-.883q-.637-.312-1.273-.617c-.122-.059-.239-.117-.364-.176-.117-.059-.234-.113-.351-.172-.11-.05-.215-.101-.325-.156a4 4 0 0 0-.937-.254m-2.773 1.594c-.09.074-.176.144-.27.218-.871.715-1.73 1.45-2.582 2.188.332.332.715.465 1.14.64l.25.106c.204.086.407.168.61.254.543-.703.926-1.465 1.29-2.273.042-.098.085-.192.132-.293.226-.52.39-.989.453-1.559-.328 0-.766.508-1.023.719m7.898.906c-.082.14-.168.277-.254.422-1.047 1.738-2.156 3.414-3.398 5.02a5 5 0 0 0-.473.808 37 37 0 0 0 2.332-.582c.113-.031.223-.063.34-.094.355-.101.715-.199 1.07-.3l.703-.2q.522-.142 1.043-.289c1.086-.305 2.176-.61 3.262-.91-.121-.14-.238-.281-.36-.418l-.203-.238c-1.14-1.324-2.535-2.375-4.062-3.219m-2.375.75c-1.695.867-3.371 1.762-5 2.75q.072.096.148.191c1.09 1.446 1.09 1.446 1.352 2.184.496-.473.91-.973 1.32-1.523.063-.086.13-.172.192-.258.746-1.004 1.43-2.047 2.113-3.094zM23.875 27c-.207.66-.414 1.32-.625 2a6.8 6.8 0 0 0 1.414-.766c.2-.136.2-.136.406-.273q.147-.105.305-.211c-.29-.336-.54-.457-.96-.586-.18-.055-.356-.11-.54-.164M27 28.875c-.172.21-.336.43-.492.648-.922 1.266-1.961 2.438-3.008 3.602.258.164.258.164.582.02.207-.086.207-.086.418-.168l.46-.188a25 25 0 0 0 .485-.195c.97-.39 1.934-.778 2.93-1.094.09-.84-.191-1.414-.625-2.125-.246-.32-.246-.32-.5-.5zm8.324 1.844c-.238.066-.238.066-.476.136l-.496.145q-.25.073-.5.145-.613.177-1.227.355c.332.402.754.57 1.223.766.082.035.164.074.25.109l.52.223q.397.168.796.343c.168.07.336.145.504.215l.242.106c.406.18.406.18.84.238-.066-1.023-.27-2.004-.5-3-.434 0-.762.098-1.176.219m-12.738.617q-.104.083-.215.164a9.4 9.4 0 0 0-1.848 1.914c-.078.102-.078.102-.152.207q-.189.252-.371.504c.438 0 .473-.05.777-.34q.117-.106.235-.219.123-.116.246-.238.124-.119.254-.238l.738-.715.207-.2c.711-.628.711-.628 1.168-1.425-.426 0-.715.332-1.04.586M31 32.625c-.2.973-.383 1.945-.562 2.922l-.083.433q-.252 1.382-.48 2.77c2.191-1.145 4.293-2.418 6.375-3.75-.336-.41-.781-.582-1.258-.785-.086-.04-.172-.074-.258-.113q-.276-.122-.547-.239l-.832-.363c-.175-.078-.355-.152-.535-.23q-.117-.052-.246-.11A11 11 0 0 0 31 32.625m-2.441.238q-.204.072-.418.149l-.438.16c-.215.078-.215.078-.437.156-.836.297-.836.297-1.641.672.477 1.617 1.344 3.129 2.625 4.25h.25q.186-.868.367-1.742.063-.292.125-.59c.235-1.094.45-2.172.508-3.293-.348 0-.613.121-.941.238M24 34.625c-.187.563-.375 1.121-.555 1.684a25.5 25.5 0 0 1-2.898 6.03c-.192.266-.192.266-.172.536.824-.238 1.637-.5 2.438-.805q.162-.062.332-.125c1.566-.61 3.101-1.32 4.605-2.07-.184-.437-.43-.695-.773-1.016-1.024-1.007-1.649-2.148-2.266-3.43-.2-.429-.2-.429-.461-.804zm-3.871 1.871q-.336.168-.676.324c-.73.352-1.105.633-1.379 1.41q-.036.135-.074.27l-.066.234c-.301 1.332-.098 2.786.441 4.016.441-.148.477-.23.703-.613q.094-.151.188-.309.095-.168.195-.336l.203-.344c1.586-2.628 1.586-2.628 2.461-5.523-.648 0-1.418.574-1.996.871m15.965.215a63 63 0 0 1-2.64 1.64q-.166.1-.337.2a78 78 0 0 1-2.367 1.324c1.59 1.063 3.91 1.527 5.805 1.508.133 0 .261-.004.398-.004.149 0 .149 0 .297-.004.105-1.086.137-2.168.14-3.258v-1.059a5.3 5.3 0 0 0-.14-.933c-.445 0-.797.344-1.156.586m-24.27 5.457c-.347.363-.668.75-.98 1.145l-.176.222c-.277.36-.453.649-.543 1.09 1.516.055 2.977.008 4.477-.227l.406-.062c.781-.129 1.5-.316 2.242-.586q-.063-.188-.133-.383c-.058-.168-.113-.34-.172-.508q-.042-.125-.086-.25c-.316-.937-.375-1.797-.367-2.78v-.352c.004-.286.004-.567.008-.852-1.305 0-3.758 2.629-4.676 3.543M29.25 40.75a7 7 0 0 1-.098.258c-.761 2.035-1.554 4.05-2.527 5.992.836-.25 1.598-.586 2.375-.977q.174-.088.355-.175c.243-.125.489-.246.735-.371q.552-.281 1.105-.555A58 58 0 0 0 35 42.875v-.25l-.477-.082a18.6 18.6 0 0 1-5.273-1.793m-2.715 1.207q-.147.066-.293.137-.156.071-.32.148c-.98.45-1.973.856-2.985 1.235l-.367.136a46 46 0 0 1-2.28.77c-.31.09-.31.09-.415.367 1.438 1.152 2.996 2.148 4.75 2.75a36 36 0 0 0 1.664-3.11c.05-.109.106-.218.16-.331.57-1.114.57-1.114.801-2.309-.297 0-.45.078-.715.207m9.594 1.875c-.2.105-.2.105-.399.215-.144.078-.285.156-.433.234q-.452.245-.899.485c-.117.062-.117.062-.23.125a153 153 0 0 1-6.918 3.484c.105.281.105.281.422.352q.192.05.394.101l.438.11.473.117.48.117c1.918.465 3.82.742 5.793.828a39 39 0 0 0 1.305-4.375c.03-.14.066-.277.097-.422.13-.582.243-1.105.223-1.703-.262 0-.527.21-.746.332M18.5 45.5a28 28 0 0 0-.715.844 59 59 0 0 0-1.223 1.539c-.519.672-1.066 1.3-1.652 1.918-.336.383-.62.781-.91 1.199 3.012-.355 6.27-1.008 9-2.375v-.25c-.09-.05-.09-.05-.184-.098-1.511-.812-2.878-1.672-4.191-2.777zm-2.996.078q-.142.023-.285.05-.294.049-.582.102c-1.235.215-2.465.293-3.715.34l-.418.016q-.499.023-1.004.039c-.332.668-.11 1.504.113 2.176.457 1.078 1.242 1.847 2.137 2.574 1.074-.457 1.86-1.61 2.57-2.5.422-.52.86-1.023 1.297-1.527.606-.606.606-.606.883-1.348a5.3 5.3 0 0 0-.996.078m9.746 3.797c-.098.129-.195.258-.293.395-1.023 1.37-2.055 2.714-3.207 3.98.414.137.586.113 1.008.035l.398-.07q.209-.042.43-.082t.45-.086c2.843-.55 5.628-1.27 8.339-2.297v-.125l-.258-.047c-1.91-.34-3.762-.758-5.617-1.328l-.7-.21c-.155-.048-.155-.048-.32-.095zm-3.578 1.191c-1.363.48-2.723.907-4.133 1.23q-.192.047-.394.09c-.918.204-1.84.356-2.77.489.992.66 2.2 1.043 3.32 1.43q.142.05.29.101c.69.235.69.235 1.39.094 1.156-.863 2.688-2.277 3.25-3.625-.383 0-.598.063-.953.191M33.5 52.242A46.3 46.3 0 0 1 23.625 55c.336.336.57.32 1.043.379q.238.033.488.066.129.013.258.032.379.045.758.097c1.566.2 3.094.32 4.672.309h.449c.36-.004.723-.004 1.082-.008q.362-.617.719-1.234.099-.171.203-.348c.43-.742.785-1.488 1.078-2.293-.336 0-.566.117-.875.242m0 0" style="stroke:none;fill-rule:nonzero;fill:#b71c1c;fill-opacity:1"/><path d="M37.875 30.125a22 22 0 0 1 .578 2.766l.047.312c.164 1.14.27 2.266.273 3.418.004.117.004.23.004.348q.005.553.004 1.11v.382c0 1.875-.062 3.691-.406 5.539q-.032.176-.062.36c-.641 3.613-1.84 7.038-3.516 10.296l-.2.387c-.19.367-.394.723-.597 1.082l-.191.367c-.48.817-.48.817-1.004.985a7 7 0 0 1-1.164 0l-.446-.016c-.48-.02-.965-.05-1.445-.086q-.25-.019-.5-.031c-6.621-.438-15.168-1.574-19.922-6.696-.984-1.136-1.504-2.574-1.433-4.078.195-1.75.937-3.066 1.98-4.445q.146-.194.297-.395c.363-.394.664-.566 1.148-.792.176-.086.356-.168.532-.254q.152-.07.304-.145c.625-.297 1.242-.61 1.864-.918l.46-.226c1-.5 1.993-1.012 2.954-1.583.347-.203.53-.312.941-.312q-.041.122-.082.25a8.34 8.34 0 0 0 .082 5c.52-.453.82-1.004 1.156-1.594q.089-.156.184-.32c.937-1.652 1.824-3.36 2.39-5.18.192-.37.387-.46.762-.633q.164-.076.332-.16c.301-.113.301-.113.676-.113a8.6 8.6 0 0 1-.484 2.14c-.059.16-.059.16-.114.325-.73 1.996-1.77 3.867-2.902 5.66a85 85 0 0 0 5.523-2.258c.133-.062.266-.12.407-.183.113-.055.23-.106.351-.164.36-.153.723-.278 1.094-.395q-.183-.21-.367-.422c-.082-.094-.16-.183-.242-.281a15 15 0 0 0-.536-.57c-1.101-1.145-1.945-2.563-2.355-4.102.16-.086.316-.168.477-.25.09-.047.175-.094.27-.14.253-.11.253-.11.628-.11.086.203.086.203.176.406.648 1.477 1.379 2.86 2.699 3.844.016-.152.027-.309.043-.465.082-.742.234-1.469.387-2.2l.164-.796.082-.39c.097-.528.164-1.063.226-1.594.098-.305.098-.305.364-.5.324-.14.64-.223.984-.305.117-.04.234-.074.36-.117 1.07-.336 1.828-.203 2.85.262l.267.117c.277.12.55.246.828.37.187.083.379.169.566.25.461.208.918.411 1.379.618l-.047-.219c-.066-.332-.137-.66-.203-.992l-.07-.344-.07-.336c-.02-.101-.044-.203-.063-.308-.047-.313-.055-.61-.047-.926.48-.227.848-.262 1.375-.25M31 32.625c-.2.973-.383 1.945-.562 2.922l-.083.433q-.252 1.382-.48 2.77c2.191-1.145 4.293-2.418 6.375-3.75-.336-.41-.781-.582-1.258-.785-.086-.04-.172-.074-.258-.113q-.276-.122-.547-.239l-.832-.363c-.175-.078-.355-.152-.535-.23q-.117-.052-.246-.11A11 11 0 0 0 31 32.625m5.094 4.086a63 63 0 0 1-2.64 1.64q-.166.1-.337.2a78 78 0 0 1-2.367 1.324c1.59 1.063 3.91 1.527 5.805 1.508.133 0 .261-.004.398-.004.149 0 .149 0 .297-.004.105-1.086.137-2.168.14-3.258v-1.059a5.3 5.3 0 0 0-.14-.933c-.445 0-.797.344-1.156.586m-24.27 5.457c-.347.363-.668.75-.98 1.145l-.176.222c-.277.36-.453.649-.543 1.09 1.516.055 2.977.008 4.477-.227l.406-.062c.781-.129 1.5-.316 2.242-.586q-.063-.188-.133-.383c-.058-.168-.113-.34-.172-.508q-.042-.125-.086-.25c-.316-.937-.375-1.797-.367-2.78v-.352c.004-.286.004-.567.008-.852-1.305 0-3.758 2.629-4.676 3.543M29.25 40.75a7 7 0 0 1-.098.258c-.761 2.035-1.554 4.05-2.527 5.992.836-.25 1.598-.586 2.375-.977q.174-.088.355-.175c.243-.125.489-.246.735-.371q.552-.281 1.105-.555A58 58 0 0 0 35 42.875v-.25l-.477-.082a18.6 18.6 0 0 1-5.273-1.793m-2.715 1.207q-.147.066-.293.137-.156.071-.32.148c-.98.45-1.973.856-2.985 1.235l-.367.136a46 46 0 0 1-2.28.77c-.31.09-.31.09-.415.367 1.438 1.152 2.996 2.148 4.75 2.75a36 36 0 0 0 1.664-3.11c.05-.109.106-.218.16-.331.57-1.114.57-1.114.801-2.309-.297 0-.45.078-.715.207m9.594 1.871-.399.219c-.144.078-.285.156-.433.234q-.452.245-.899.485c-.117.062-.117.062-.23.125a153 153 0 0 1-6.918 3.484c.105.281.105.281.422.352q.192.05.394.101l.438.11.473.117.48.117c1.918.465 3.82.742 5.793.828a39 39 0 0 0 1.305-4.375c.03-.14.066-.277.097-.422.13-.582.243-1.105.223-1.703-.262 0-.527.21-.746.328M18.5 45.5a28 28 0 0 0-.715.844 59 59 0 0 0-1.223 1.539c-.519.672-1.066 1.3-1.652 1.918-.336.383-.62.781-.91 1.199 3.012-.355 6.27-1.008 9-2.375v-.25c-.09-.05-.09-.05-.184-.098-1.511-.812-2.878-1.672-4.191-2.777zm-2.996.078q-.142.023-.285.05-.294.049-.582.102c-1.235.215-2.465.293-3.715.34l-.418.016q-.499.023-1.004.039c-.332.668-.11 1.504.113 2.18.457 1.074 1.242 1.843 2.137 2.57 1.074-.457 1.86-1.61 2.57-2.5.422-.52.86-1.023 1.297-1.527.606-.606.606-.606.883-1.348a5.3 5.3 0 0 0-.996.078m9.746 3.797c-.098.129-.195.258-.293.395-1.023 1.37-2.055 2.714-3.207 3.98.414.137.586.113 1.008.035l.398-.07q.209-.042.43-.082t.45-.086c2.843-.55 5.628-1.27 8.339-2.297v-.125l-.258-.047c-1.91-.34-3.762-.758-5.617-1.328l-.7-.21c-.155-.048-.155-.048-.32-.095zm-3.578 1.191c-1.363.48-2.723.907-4.133 1.23q-.192.047-.394.09c-.918.204-1.84.356-2.77.489.992.66 2.2 1.043 3.32 1.43q.142.05.29.101c.69.235.69.235 1.39.094 1.156-.863 2.688-2.277 3.25-3.625-.383 0-.598.063-.953.191M33.5 52.242A46.3 46.3 0 0 1 23.625 55c.336.336.57.32 1.043.379q.238.033.488.066.129.013.258.032.379.045.758.097c1.566.2 3.094.32 4.672.309h.449c.36-.004.723-.004 1.082-.008q.362-.617.719-1.234.099-.171.203-.348c.43-.742.785-1.488 1.078-2.293-.336 0-.566.117-.875.242m0 0" style="stroke:none;fill-rule:nonzero;fill:#cfd7db;fill-opacity:1"/><path d="m29.375 3.875.012.238c.183 3.149.578 6.485 2.129 9.293.109.219.109.219.109.469-1.215.043-1.215.043-1.75-.25-.5-.684-.727-1.586-1-2.375l-.164.125q-.262.195-.523.383c-.325.242-.325.242-.633.55-.528.473-.973.852-1.703.848-.485-.039-.957-.125-1.434-.222a13 13 0 0 0-.879-.137c-.187-.027-.375-.05-.562-.078q-.129-.016-.258-.031c-1.157-.192-1.774-1.114-2.43-2q-.105-.136-.21-.278c-.376-.5-.735-1.008-1.079-1.535q-.27.169-.54.344c-.148.097-.148.097-.304.195-.289.215-.472.402-.656.711.027.398.027.398.125.75-.457-.187-.71-.453-1.031-.828-.09-.102-.176-.203-.266-.309l-.203-.238c.707-1.543 2.285-2.21 3.75-2.875q.206-.093.418-.191c2.547-1.079 6.246-2.559 9.082-2.559m-3.437 2.258-.454.117a41 41 0 0 0-2.812.852c-.106.035-.211.074-.317.109-.523.152-.523.152-.855.539.7.137 1.395.277 2.094.414l.71.14c1.352.27 2.7.516 4.071.696-.125-1.074-.246-2.145-.375-3.25-.719 0-1.367.203-2.062.383m-4.813 2.992c.75 1.309 1.852 2.402 2.875 3.5.957-.434 1.836-.895 2.672-1.54.105-.081.105-.081.215-.163.168-.133.328-.277.488-.422v-.25l-2.55-.48-.868-.165-1.246-.234q-.192-.036-.395-.074l-.363-.07q-.156-.03-.32-.059c-.254-.05-.254-.05-.508-.043m0 0" style="stroke:none;fill-rule:nonzero;fill:#ced7db;fill-opacity:1"/><path d="M12.375 39.625c0 .574-.367.852-.75 1.25-.332.293-.57.402-1 .5a13 13 0 0 1 1.75-1.75m0 0" style="stroke:none;fill-rule:nonzero;fill:#bc3636;fill-opacity:1"/></svg>