<?xml version="1.0" encoding="UTF-8"?>
<svg xmlns="http://www.w3.org/2000/svg" xmlns:xlink="http://www.w3.org/1999/xlink" width="64px" height="39px" viewBox="0 0 63 39" version="1.1">
<defs>
<clipPath id="clip1">
  <path d="M 0 0 L 63 0 L 63 38.289062 L 0 38.289062 Z M 0 0 "/>
</clipPath>
</defs>
<g id="surface1">
<g clip-path="url(#clip1)" clip-rule="nonzero">
<path style=" stroke:none;fill-rule:evenodd;fill:rgb(21.960784%,74.117649%,97.254902%);fill-opacity:1;" d="M 31.5 0 C 23.101562 0 17.851562 4.253906 15.75 12.761719 C 18.898438 8.507812 22.574219 6.914062 26.773438 7.976562 C 29.171875 8.582031 30.882812 10.34375 32.78125 12.292969 C 35.867188 15.46875 39.441406 19.144531 47.25 19.144531 C 55.648438 19.144531 60.898438 14.890625 63 6.382812 C 59.851562 10.636719 56.175781 12.230469 51.976562 11.167969 C 49.578125 10.5625 47.867188 8.800781 45.96875 6.851562 C 42.882812 3.675781 39.308594 0 31.5 0 Z M 15.75 19.144531 C 7.351562 19.144531 2.101562 23.398438 0 31.910156 C 3.148438 27.65625 6.824219 26.058594 11.023438 27.121094 C 13.421875 27.730469 15.132812 29.492188 17.03125 31.441406 C 20.117188 34.617188 23.691406 38.289062 31.5 38.289062 C 39.898438 38.289062 45.148438 34.035156 47.25 25.527344 C 44.101562 29.78125 40.425781 31.378906 36.226562 30.3125 C 33.828125 29.707031 32.117188 27.945312 30.21875 25.996094 C 27.132812 22.820312 23.558594 19.144531 15.75 19.144531 Z M 15.75 19.144531 "/>
</g>
</g>
</svg>
