<?xml version="1.0" encoding="UTF-8"?>
<svg xmlns="http://www.w3.org/2000/svg" xmlns:xlink="http://www.w3.org/1999/xlink" width="64px" height="64px" viewBox="0 0 64 64" version="1.1">
<g id="surface1">
<path style=" stroke:none;fill-rule:nonzero;fill:rgb(0%,47.843137%,80.000001%);fill-opacity:1;" d="M 0 32 L 0 0 L 64 0 L 64 64 L 0 64 "/>
<path style=" stroke:none;fill-rule:nonzero;fill:rgb(100%,100%,100%);fill-opacity:1;" d="M 14.03125 32.113281 L 14.03125 34.71875 L 22.351562 34.71875 L 22.351562 58.398438 L 28.257812 58.398438 L 28.257812 34.71875 L 36.574219 34.71875 L 36.574219 32.160156 C 36.574219 30.71875 36.574219 29.550781 36.511719 29.519531 C 36.511719 29.472656 31.441406 29.457031 25.28125 29.457031 L 14.078125 29.503906 L 14.078125 32.128906 Z M 51.425781 29.441406 C 53.054688 29.824219 54.304688 30.558594 55.425781 31.726562 C 56.015625 32.367188 56.894531 33.488281 56.960938 33.777344 C 56.960938 33.871094 54.191406 35.742188 52.511719 36.785156 C 52.449219 36.832031 52.191406 36.558594 51.9375 36.144531 C 51.105469 34.960938 50.257812 34.449219 48.929688 34.351562 C 47.007812 34.222656 45.726562 35.230469 45.726562 36.910156 C 45.726562 37.425781 45.824219 37.710938 46.015625 38.128906 C 46.449219 39.007812 47.246094 39.535156 49.726562 40.625 C 54.304688 42.59375 56.289062 43.886719 57.488281 45.742188 C 58.847656 47.824219 59.152344 51.089844 58.238281 53.535156 C 57.214844 56.207031 54.71875 58.015625 51.152344 58.609375 C 50.03125 58.800781 47.472656 58.769531 46.273438 58.558594 C 43.710938 58.078125 41.265625 56.800781 39.761719 55.152344 C 39.167969 54.511719 38.03125 52.800781 38.097656 52.6875 L 38.703125 52.304688 L 41.105469 50.910156 L 42.910156 49.855469 L 43.328125 50.414062 C 43.855469 51.246094 45.039062 52.367188 45.726562 52.753906 C 47.808594 53.824219 50.59375 53.679688 51.96875 52.433594 C 52.558594 51.886719 52.816406 51.3125 52.816406 50.511719 C 52.816406 49.777344 52.703125 49.441406 52.335938 48.878906 C 51.824219 48.175781 50.800781 47.601562 47.921875 46.320312 C 44.609375 44.910156 43.199219 44.015625 41.886719 42.640625 C 41.136719 41.808594 40.449219 40.511719 40.128906 39.441406 C 39.886719 38.511719 39.808594 36.238281 40.03125 35.328125 C 40.71875 32.128906 43.136719 29.886719 46.59375 29.246094 C 47.710938 29.023438 50.351562 29.121094 51.457031 29.40625 Z M 51.425781 29.441406 "/>
</g>
</svg>
